#N canvas 0 22 754 506 10;
#X floatatom 115 160 5 0 0 0 - - -;
#X obj 115 322 outlet freq;
#X obj 115 30 - 0.5;
#X obj 115 59 * -36;
#X obj 115 87 int;
#X floatatom 115 111 5 0 0 0 - - -;
#N canvas 0 22 450 278 (subpatch) 0;
#X array \$0-lightArray 35 float 3;
#A 0 0 0 0 1 1 1 2 2 2 3 3 3 3 3 4 4 4 5 5 5 5 6 6 6 7 7 7 7 8 8 8
8 9 9 9;
#X coords 0 40 35 0 200 140 1 0 0;
#X restore 209 199 graph;
#X obj 254 41 loadbang;
#X obj 20 91 inlet eulerX;
#X obj 254 101 \$0;
#X obj 115 135 tabread \$0-lightArray;
#X obj 299 70 bng 15 250 50 0 empty empty empty 17 7 0 10 -262144 -1
-1;
#X msg 253 128 \; \$1-lightArray 0 0 0 0 1 1 1 2 2 2 3 3 3 3 3 4 4
4 5 5 5 5 6 6 6 7 7 7 7 8 8 8 8 9 9 9 9;
#X msg 115 215 9;
#X obj 115 240 -;
#X obj 115 187 t b f;
#X floatatom 115 266 5 0 0 0 - - -;
#X obj 20 121 - 0.5;
#X obj 20 186 int;
#X floatatom 20 241 5 0 0 0 - - -;
#X obj 20 216 + 4;
#X obj 20 158 * -5;
#X connect 0 0 15 0;
#X connect 2 0 3 0;
#X connect 3 0 4 0;
#X connect 4 0 5 0;
#X connect 5 0 10 0;
#X connect 7 0 9 0;
#X connect 8 0 17 0;
#X connect 9 0 12 0;
#X connect 10 0 0 0;
#X connect 11 0 9 0;
#X connect 13 0 14 0;
#X connect 14 0 16 0;
#X connect 15 0 13 0;
#X connect 15 1 14 1;
#X connect 16 0 1 0;
#X connect 17 0 21 0;
#X connect 18 0 20 0;
#X connect 19 0 1 0;
#X connect 20 0 19 0;
#X connect 21 0 18 0;
