#N canvas 73 23 743 666 10;
#N canvas 0 22 450 278 (subpatch) 0;
#X array \$0-array1 35 float 3;
#A 0 6 6 6 6 6 6 6 6 6 6 6 5 5 5 4 4 4 4 3 3 3 3 2 2 2 2 1 1 1 1 1
1 1 1 1;
#X coords 0 40 35 0 200 140 1 0 0;
#X restore 202 296 graph;
#X obj 195 69 loadbang;
#X obj 195 129 \$0;
#X obj 224 103 bng 15 250 50 0 empty empty empty 17 7 0 10 -262144
-1 -1;
#X msg 209 161 \; \$1-array1 0 2 2 2 4 4 4 9 9 9 14 14 14 14 14 19
19 19 21 21 21 21 26 26 26 31 31 31 31 33 33 33 33 38 38 38 38;
#X text 223 137 opposite;
#X obj 33 62 - 0.5;
#X obj 33 99 * -36;
#X obj 33 127 int;
#X floatatom 33 151 5 0 0 0 - - -;
#X obj 33 34 inlet eulerX;
#X obj 33 182 tabread \$0-array1;
#X obj 33 244 outlet notenum;
#X floatatom 33 220 5 0 0 0 - - -;
#X obj 139 251 t f b;
#X obj 139 219 inlet;
#X msg 195 226 \; \$1-array1 0 6 6 6 6 6 6 6 6 6 6 6 5 5 5 4 4 4 4
3 3 3 3 2 2 2 2 1 1 1 1 1 1 1 1 1 1;
#X connect 1 0 2 0;
#X connect 2 0 16 0;
#X connect 3 0 2 0;
#X connect 6 0 7 0;
#X connect 7 0 8 0;
#X connect 8 0 9 0;
#X connect 9 0 11 0;
#X connect 10 0 6 0;
#X connect 11 0 13 0;
#X connect 13 0 12 0;
#X connect 15 0 14 0;
