#N canvas 30 23 627 532 10;
#X obj 24 18 inlet~ input;
#X obj 85 462 outlet~ output;
#X obj 61 170 +~;
#X floatatom 216 238 5 0 0 1 delay_time - -;
#X floatatom 398 236 5 0 0 1 delay_time - -;
#X floatatom 350 320 5 0 0 1 delay_time - -;
#X floatatom 263 171 5 0 0 0 - - -;
#X obj 307 198 * 2;
#X obj 26 374 *~ 1;
#X obj 265 122 loadbang;
#X msg 263 143 150;
#X obj 216 265 delread~ \$0-p_delaypiano 150;
#X obj 398 263 delread~ \$0-p_delaypiano 300;
#X obj 61 199 delwrite~ \$0-p_delaypiano 800;
#X obj 350 198 * 2.5;
#X obj 350 347 delread~ \$0-p_delaypiano 375;
#X obj 175 345 *~ 0.3;
#X obj 172 387 *~ 0.2;
#X obj 85 436 *~ 1.2;
#X connect 0 0 8 0;
#X connect 0 0 2 0;
#X connect 2 0 13 0;
#X connect 3 0 11 0;
#X connect 4 0 12 0;
#X connect 5 0 15 0;
#X connect 6 0 7 0;
#X connect 6 0 3 0;
#X connect 6 0 14 0;
#X connect 7 0 4 0;
#X connect 9 0 10 0;
#X connect 10 0 6 0;
#X connect 11 0 16 0;
#X connect 12 0 16 0;
#X connect 16 0 2 1;
#X connect 16 0 17 0;
#X connect 16 0 18 0;
#X connect 17 0 18 0;
#X connect 18 0 1 0;
