#N canvas 128 296 625 584 10;
#X obj 117 421 tabread~ \$0-array;
#X obj 117 395 line~;
#X msg 144 368 0 0;
#X obj 117 344 t l b;
#X obj 117 268 f;
#X msg 117 320 \$1 \$2;
#X obj 117 292 pack f f;
#X obj 162 268 / 44.1;
#N canvas 0 22 450 278 (subpatch) 0;
#X array \$0-array 206006 float 2;
#X coords 0 1 206006 -1 200 140 1 0 0;
#X restore 346 346 graph;
#X obj 207 100 loadbang;
#X obj 207 120 bng 15 250 50 0 empty empty empty 17 7 0 10 -262144
-1 -1;
#X obj 207 138 \$0;
#X obj 162 219 soundfiler;
#X msg 162 188 read -resize \$1 \$2-array;
#X obj 162 164 list 1 2;
#X obj 117 35 inlet bng;
#X obj 116 506 outlet~;
#X obj 197 36 inlet filename;
#X connect 0 0 16 0;
#X connect 1 0 0 0;
#X connect 2 0 1 0;
#X connect 3 0 1 0;
#X connect 3 1 2 0;
#X connect 4 0 6 0;
#X connect 5 0 3 0;
#X connect 6 0 5 0;
#X connect 7 0 6 1;
#X connect 9 0 10 0;
#X connect 10 0 11 0;
#X connect 11 0 14 1;
#X connect 12 0 7 0;
#X connect 12 0 4 1;
#X connect 13 0 12 0;
#X connect 14 0 13 0;
#X connect 15 0 4 0;
#X connect 17 0 14 0;
