#N canvas 0 22 484 409 10;
#X obj 198 65 t f b;
#X obj 157 106 f;
#X floatatom 157 134 5 0 0 0 - - -;
#X floatatom 198 154 5 0 0 0 - - -;
#X obj 130 181 != \$1;
#X obj 183 282 f;
#X obj 130 250 spigot;
#X obj 130 218 t b f;
#X obj 130 290 bng 15 250 50 0 empty empty empty 17 7 0 10 -262144
-1 -1;
#X obj 198 33 inlet;
#X obj 183 349 outlet;
#X obj 256 152 bng 15 250 50 0 empty empty empty 17 7 0 10 -262144
-1 -1;
#X obj 256 185 outlet;
#X connect 0 0 1 1;
#X connect 0 0 3 0;
#X connect 0 1 1 0;
#X connect 1 0 2 0;
#X connect 2 0 4 1;
#X connect 3 0 4 0;
#X connect 3 0 5 1;
#X connect 4 0 7 0;
#X connect 5 0 10 0;
#X connect 6 0 5 0;
#X connect 6 0 8 0;
#X connect 7 0 6 0;
#X connect 7 1 6 1;
#X connect 9 0 0 0;
#X connect 9 0 11 0;
#X connect 11 0 12 0;
