#N canvas 426 23 556 726 10;
#X obj 109 514 f;
#X obj 109 540 print;
#X obj 109 458 tgl 15 0 empty empty empty 17 7 0 10 -262144 -1 -1 1
1;
#X floatatom 55 35 5 0 0 0 - - -;
#X obj 55 544 sel 1;
#X obj 55 524 tgl 15 0 empty empty empty 17 7 0 10 -262144 -1 -1 0
1;
#X obj 55 566 bng 15 250 50 0 empty empty empty 17 7 0 10 -262144 -1
-1;
#X obj 55 619 bng 15 250 50 0 empty empty empty 17 7 0 10 -262144 -1
-1;
#X obj 55 652 outlet;
#N canvas 89 403 450 300 onebang-spigot450 0;
#X obj 94 -38 spigot;
#N canvas 670 314 450 300 onebang 0;
#X obj 109 -162 loadbang;
#X msg 168 -131 1;
#X msg 200 -131 0;
#X obj 168 -231 inlet;
#X obj 200 -158 inlet;
#X obj 168 -102 outlet;
#X obj 200 -80 outlet;
#X obj 168 -192 delay 450;
#X connect 0 0 1 0;
#X connect 1 0 5 0;
#X connect 2 0 6 0;
#X connect 3 0 7 0;
#X connect 4 0 2 0;
#X connect 7 0 1 0;
#X restore 161 -36 pd onebang;
#X obj 94 -82 inlet;
#X obj 94 7 outlet;
#X connect 0 0 1 1;
#X connect 0 0 1 0;
#X connect 0 0 3 0;
#X connect 1 0 0 1;
#X connect 1 1 0 1;
#X connect 2 0 0 0;
#X restore 55 591 pd onebang-spigot450;
#X obj 55 11 r accZL;
#X obj 113 11 r accZR;
#X floatatom 298 40 5 0 0 0 - - -;
#X floatatom 444 38 5 0 0 0 - - -;
#X obj 279 11 r gyroXL;
#X obj 425 9 r gyroXR;
#X floatatom 55 482 5 0 0 0 - - -;
#X obj 55 459 +;
#X obj 279 339 +;
#X floatatom 279 362 5 0 0 0 - - -;
#X obj 425 87 moses 0;
#X floatatom 425 114 5 0 0 0 - - -;
#X floatatom 464 114 5 0 0 0 - - -;
#X obj 279 89 moses 0;
#X floatatom 279 116 5 0 0 0 - - -;
#X floatatom 318 116 5 0 0 0 - - -;
#X floatatom 55 82 5 0 0 0 - - -;
#X floatatom 425 159 5 0 0 0 - - -;
#X floatatom 279 162 5 0 0 0 - - -;
#X obj 279 141 * 10;
#X obj 425 137 * 10;
#X obj 279 186 int;
#X floatatom 279 231 5 0 0 0 - - -;
#X obj 425 181 int;
#X floatatom 425 228 5 0 0 0 - - -;
#X obj 55 136 int;
#X floatatom 55 160 5 0 0 0 - - -;
#X obj 328 193 metro 100;
#X obj 328 165 tgl 15 0 empty empty empty 17 7 0 10 -262144 -1 -1 1
1;
#X obj 109 486 metro 300;
#X floatatom 279 412 5 0 0 0 - - -;
#X floatatom 113 35 5 0 0 0 - - -;
#X floatatom 113 82 5 0 0 0 - - -;
#X obj 55 110 +;
#X obj 425 254 IgnoreSameNumber;
#X obj 328 138 loadbang;
#X obj 518 285 bng 15 250 50 0 empty empty empty 17 7 0 10 -262144
-1 -1;
#X obj 279 254 IgnoreSameNumber;
#X obj 372 285 bng 15 250 50 0 empty empty empty 17 7 0 10 -262144
-1 -1;
#X floatatom 279 286 5 0 0 0 - - -;
#X floatatom 425 285 5 0 0 0 - - -;
#X obj 279 63 * -2;
#X obj 425 61 * -2;
#X floatatom 70 247 5 0 0 0 - - -;
#X floatatom 70 301 5 0 0 0 - - -;
#X floatatom 126 301 5 0 0 0 - - -;
#X obj 70 330 *;
#X floatatom 70 357 5 0 0 0 - - -;
#X obj 55 385 *;
#X floatatom 55 412 5 0 0 0 - - -;
#X msg 372 309 -20;
#X msg 518 309 -20;
#X obj 55 503 > 180;
#X floatatom 126 221 5 0 0 0 - - -;
#X obj 70 195 r gyroZL;
#X obj 126 195 r gyroZR;
#X obj 126 248 convertGyroTo4Range;
#X obj 70 274 convertGyroTo4Range;
#X obj 55 59 * 30;
#X obj 113 59 * 30;
#X obj 279 387 - 100;
#X connect 0 0 1 0;
#X connect 2 0 39 0;
#X connect 3 0 68 0;
#X connect 4 0 6 0;
#X connect 5 0 4 0;
#X connect 6 0 9 0;
#X connect 7 0 8 0;
#X connect 9 0 7 0;
#X connect 10 0 3 0;
#X connect 11 0 41 0;
#X connect 14 0 12 0;
#X connect 14 0 51 0;
#X connect 15 0 13 0;
#X connect 15 0 52 0;
#X connect 16 0 0 1;
#X connect 16 0 62 0;
#X connect 17 0 16 0;
#X connect 18 0 19 0;
#X connect 19 0 70 0;
#X connect 20 0 21 0;
#X connect 20 1 22 0;
#X connect 21 0 30 0;
#X connect 23 0 24 0;
#X connect 23 1 25 0;
#X connect 24 0 29 0;
#X connect 26 0 43 0;
#X connect 27 0 33 0;
#X connect 28 0 31 0;
#X connect 29 0 28 0;
#X connect 30 0 27 0;
#X connect 31 0 32 0;
#X connect 32 0 47 0;
#X connect 33 0 34 0;
#X connect 34 0 44 0;
#X connect 35 0 36 0;
#X connect 36 0 58 0;
#X connect 37 0 49 0;
#X connect 37 0 50 0;
#X connect 38 0 37 0;
#X connect 39 0 0 0;
#X connect 40 0 17 1;
#X connect 41 0 69 0;
#X connect 42 0 43 1;
#X connect 43 0 35 0;
#X connect 44 0 50 0;
#X connect 44 1 46 0;
#X connect 45 0 38 0;
#X connect 46 0 61 0;
#X connect 47 0 49 0;
#X connect 47 1 48 0;
#X connect 48 0 60 0;
#X connect 49 0 18 0;
#X connect 50 0 18 1;
#X connect 51 0 23 0;
#X connect 52 0 20 0;
#X connect 53 0 67 0;
#X connect 54 0 56 0;
#X connect 55 0 56 1;
#X connect 56 0 57 0;
#X connect 57 0 58 1;
#X connect 58 0 59 0;
#X connect 59 0 17 0;
#X connect 60 0 18 0;
#X connect 61 0 18 1;
#X connect 62 0 5 0;
#X connect 63 0 66 0;
#X connect 64 0 53 0;
#X connect 65 0 63 0;
#X connect 66 0 55 0;
#X connect 67 0 54 0;
#X connect 68 0 26 0;
#X connect 69 0 42 0;
#X connect 70 0 40 0;
