#N canvas 458 23 433 456 10;
#X obj -514 95 route LEFT;
#X obj -514 56 route list;
#X obj -514 22 r g_message;
#X obj -428 130 route RIGHT;
#X obj -428 95 loadbang;
#X msg -463 128 0;
#X msg -343 130 1;
#X obj -522 160 cnv 20 170 40 empty empty empty 20 12 0 14 -257985
-66577 0;
#X obj -514 165 OrpheLEFT;
#X obj -428 164 OrpheRIGHT;
#X obj -568 226 cnv 15 300 120 empty empty empty 20 12 0 14 -147428
-66577 0;
#N canvas 2 23 1401 831 pianoWAVplayer 0;
#X floatatom 785 53 5 0 0 0 - - -;
#X obj 785 568 outlet~;
#X obj 785 107 spigot;
#X obj 818 83 tgl 15 0 empty empty empty 17 7 0 10 -262144 -1 -1 0
1;
#X obj 31 518 outlet~;
#X floatatom 34 -62 5 0 0 0 - - -;
#X obj 34 -91 r NoteNUM;
#X floatatom 785 154 5 0 0 0 - - -;
#N canvas 198 386 450 300 counter4 0;
#X obj 90 -726 bng 15 250 50 0 empty empty empty 17 7 0 10 -262144
-1 -1;
#X msg 90 -704 1;
#X obj 90 -679 +;
#X floatatom 141 -679 5 0 0 0 - - -;
#X msg 141 -704 0;
#X obj 141 -726 bng 15 250 50 0 empty empty empty 17 7 0 10 -262144
-1 -1;
#X obj 90 -755 inlet;
#X obj 141 -756 inlet;
#X obj 141 -639 outlet;
#X obj 186 -677 sel 4;
#X connect 0 0 1 0;
#X connect 1 0 2 0;
#X connect 2 0 3 0;
#X connect 3 0 2 1;
#X connect 3 0 8 0;
#X connect 3 0 9 0;
#X connect 4 0 2 1;
#X connect 5 0 4 0;
#X connect 6 0 0 0;
#X connect 7 0 5 0;
#X connect 9 0 5 0;
#X restore 785 27 pd counter4;
#X obj 854 82 bng 15 250 50 0 empty empty empty 17 7 0 10 -262144 -1
-1;
#X msg 854 108 0;
#X obj 785 -2 bng 15 250 50 0 empty empty empty 17 7 0 10 -262144 -1
-1;
#N canvas 178 302 450 300 counter16 0;
#X obj 90 -726 bng 15 250 50 0 empty empty empty 17 7 0 10 -262144
-1 -1;
#X msg 90 -704 1;
#X obj 90 -679 +;
#X floatatom 141 -679 5 0 0 0 - - -;
#X msg 141 -704 0;
#X obj 141 -726 bng 15 250 50 0 empty empty empty 17 7 0 10 -262144
-1 -1;
#X obj 90 -755 inlet;
#X obj 141 -756 inlet;
#X obj 141 -639 outlet;
#X obj 186 -677 sel 16;
#X connect 0 0 1 0;
#X connect 1 0 2 0;
#X connect 2 0 3 0;
#X connect 3 0 2 1;
#X connect 3 0 8 0;
#X connect 3 0 9 0;
#X connect 4 0 2 1;
#X connect 5 0 4 0;
#X connect 6 0 0 0;
#X connect 7 0 5 0;
#X connect 9 0 5 0;
#X restore 785 132 pd counter16;
#X obj 854 53 r Scene8;
#X obj 908 291 s g_AccompanyBanged;
#X obj 908 270 bng 15 250 50 0 empty empty empty 17 7 0 10 -262144
-1 -1;
#X obj 1074 69 r StepSUM;
#X floatatom 1074 101 5 0 0 0 - - -;
#X obj 1074 165 bng 15 250 50 0 empty empty empty 17 7 0 10 -262144
-1 -1;
#X obj 1074 134 sel 26;
#X obj 785 176 sel 1 5 9 13 16;
#X obj 785 285 *~ 0.8;
#X obj 34 -26 sel 49 51 53 54 56 57 58 59 61 62 63 64 65 66 67 68 69
70 71;
#X obj 403 -26 sel 72 73 74 75 76 77 78 79 80 81 82 84 85 87 89 92
93 94;
#X obj 785 -28 r STEPL;
#X obj 854 375 bng 15 250 50 0 empty empty empty 17 7 0 10 -262144
-1 -1;
#X obj 873 375 bng 15 250 50 0 empty empty empty 17 7 0 10 -262144
-1 -1;
#N canvas 616 23 692 644 granular 0;
#N canvas 0 22 450 300 (subpatch) 0;
#X array \$0-test 92610 float 2;
#X coords 0 1 92610 -1 100 70 1 0 0;
#X restore 28 15 graph;
#X obj 185 -73 phasor~ 20;
#X obj 185 -16 *~ 2205;
#X obj 146 16 +~;
#X floatatom 37 -39 10 0 0 2 - - -;
#X obj 313 1 cos~;
#X obj 146 90 *~;
#X obj 313 25 *~ 0.5;
#X obj 313 49 +~ 0.5;
#X obj 313 -23 +~ 0.5;
#X obj 326 -138 soundfiler;
#X obj 221 -125 expr 44100/$f1;
#X text 267 -42 grain windowing;
#X obj 326 -116 s samplenum;
#X obj 84 -101 r samplenum;
#X obj 37 -72 *;
#X obj 188 -155 hsl 128 15 50 0.01 0 0 empty empty empty -2 -8 0 10
-262144 -1 -1 10517 1;
#X floatatom 420 218 5 0 0 0 - - -;
#X obj 146 225 outlet~;
#X floatatom 192 -103 5 0 0 0 - - -;
#X floatatom 46 -101 5 0 0 0 - - -;
#X obj 146 42 tabread~ \$0-test;
#X obj 326 -230 loadbang;
#X obj 326 -207 bng 15 250 50 0 empty empty empty 17 7 0 10 -262144
-1 -1;
#X obj 326 -185 \$0;
#X obj 146 150 *~;
#X obj 420 78 bng 15 250 50 0 empty empty empty 17 7 0 10 -262144 -1
-1;
#X obj 420 121 bng 15 250 50 0 empty empty empty 17 7 0 10 -262144
-1 -1;
#X obj 459 192 line 0;
#X floatatom 92 -225 5 0 0 0 - - -;
#X obj 420 -126 r powerL;
#X obj 420 55 spigot;
#X obj 494 11 tgl 15 0 empty empty empty 17 7 0 10 -262144 -1 -1 0
1;
#N canvas 89 403 450 300 onebang-spigot 0;
#X obj 94 -38 spigot;
#N canvas 670 314 450 300 onebang 0;
#X obj 109 -162 loadbang;
#X msg 168 -131 1;
#X msg 200 -131 0;
#X obj 168 -231 inlet;
#X obj 200 -158 inlet;
#X obj 168 -102 outlet;
#X obj 200 -80 outlet;
#X obj 168 -192 delay 3000;
#X connect 0 0 1 0;
#X connect 1 0 5 0;
#X connect 2 0 6 0;
#X connect 3 0 7 0;
#X connect 4 0 2 0;
#X connect 7 0 1 0;
#X restore 161 -36 pd onebang;
#X obj 94 -82 inlet;
#X obj 94 7 outlet;
#X connect 0 0 1 1;
#X connect 0 0 1 0;
#X connect 0 0 3 0;
#X connect 1 0 0 1;
#X connect 1 1 0 1;
#X connect 2 0 0 0;
#X restore 420 100 pd onebang-spigot;
#X obj 420 5 sel 1;
#X obj 420 30 bng 15 250 50 0 empty empty empty 17 7 0 10 -262144 -1
-1;
#X obj 185 -239 line 0;
#X floatatom 420 -97 5 0 0 0 - - -;
#X obj 480 -126 r powerR;
#X floatatom 480 -98 5 0 0 0 - - -;
#X obj 420 -74 +;
#X floatatom 420 -50 5 0 0 0 - - -;
#X obj 185 -287 r accYR;
#X floatatom 185 -188 5 0 0 0 - - -;
#X floatatom 246 -242 5 0 0 0 - - -;
#X obj 185 -214 + 8;
#X msg 326 -160 read -resize allpiano/piano7.wav \$1-test;
#X obj 494 -12 r Scene10;
#X obj 185 -263 * 7;
#X obj 459 139 delay 2000;
#X msg 420 159 1.4;
#X obj 420 -28 > 0.3;
#X msg 459 168 1.4 \, 0 1000;
#X obj 37 -259 r accYL;
#X obj 37 -219 * 128;
#X obj 37 -193 int;
#X floatatom 84 -192 5 0 0 0 - - -;
#X obj 40 -129 hsl 128 15 0 128 0 0 empty empty empty -2 -8 0 10 -262144
-1 -1 0 1;
#X obj 37 -163 line;
#X text 189 -172 grain_length;
#X text 43 -147 offset;
#X connect 1 0 2 0;
#X connect 1 0 9 0;
#X connect 2 0 3 1;
#X connect 3 0 21 0;
#X connect 4 0 3 0;
#X connect 5 0 7 0;
#X connect 6 0 25 0;
#X connect 7 0 8 0;
#X connect 8 0 6 1;
#X connect 9 0 5 0;
#X connect 10 0 13 0;
#X connect 11 0 2 1;
#X connect 14 0 15 1;
#X connect 15 0 4 0;
#X connect 16 0 11 0;
#X connect 16 0 1 0;
#X connect 16 0 19 0;
#X connect 17 0 25 1;
#X connect 21 0 6 0;
#X connect 22 0 23 0;
#X connect 23 0 24 0;
#X connect 24 0 46 0;
#X connect 25 0 18 0;
#X connect 26 0 33 0;
#X connect 27 0 50 0;
#X connect 27 0 49 0;
#X connect 28 0 17 0;
#X connect 30 0 37 0;
#X connect 31 0 26 0;
#X connect 32 0 31 1;
#X connect 33 0 27 0;
#X connect 34 0 35 0;
#X connect 35 0 31 0;
#X connect 36 0 45 0;
#X connect 37 0 40 0;
#X connect 38 0 39 0;
#X connect 39 0 40 1;
#X connect 40 0 41 0;
#X connect 41 0 51 0;
#X connect 42 0 48 0;
#X connect 43 0 16 0;
#X connect 45 0 43 0;
#X connect 46 0 10 0;
#X connect 47 0 32 0;
#X connect 48 0 36 0;
#X connect 48 0 44 0;
#X connect 49 0 52 0;
#X connect 50 0 17 0;
#X connect 51 0 34 0;
#X connect 52 0 28 0;
#X connect 53 0 29 0;
#X connect 53 0 54 0;
#X connect 54 0 55 0;
#X connect 55 0 56 0;
#X connect 55 0 58 0;
#X connect 57 0 15 0;
#X connect 57 0 20 0;
#X connect 58 0 57 0;
#X restore 1200 392 pd granular;
#X obj 1031 550 outlet~;
#X obj 1104 550 outlet~;
#X obj 854 342 sel 0 1;
#X obj 854 320 random 2;
#X obj 1031 346 spigot;
#X obj 1064 318 tgl 15 0 empty empty empty 17 7 0 10 -262144 -1 -1
0 1;
#X obj 1064 292 r Scene9;
#X obj 854 523 *~ 1.2;
#N canvas 632 23 300 443 pan 0;
#X obj 43 21 *~;
#X obj 43 61 hip~ 5;
#X obj 137 19 *~;
#X obj 137 59 hip~ 5;
#X floatatom 58 -114 5 0 0 0 - - -;
#X obj 61 -140 hsl 128 15 0 127 0 0 empty empty empty -2 -8 0 10 -262144
-1 -1 8400 1;
#X obj 58 -90 * 0.01;
#X obj 58 -36 pack 0 100;
#X obj 152 -36 pack 0 100;
#X obj 152 -61 expr 1- $f1;
#X obj 58 -6 line~;
#X obj 152 -6 line~;
#X obj 58 -241 r magL;
#X floatatom 58 -216 5 0 0 0 - - -;
#X obj 58 -193 / 2.5;
#X floatatom 58 -166 5 0 0 0 - - -;
#X obj 43 88 outlet~;
#X obj 137 89 outlet~;
#X obj 110 -6 inlet~;
#X obj 7 -6 inlet~;
#X connect 0 0 1 0;
#X connect 1 0 16 0;
#X connect 2 0 3 0;
#X connect 3 0 17 0;
#X connect 4 0 6 0;
#X connect 5 0 4 0;
#X connect 6 0 7 0;
#X connect 6 0 9 0;
#X connect 7 0 10 0;
#X connect 8 0 11 0;
#X connect 9 0 8 0;
#X connect 10 0 0 1;
#X connect 11 0 2 1;
#X connect 12 0 13 0;
#X connect 13 0 14 0;
#X connect 14 0 15 0;
#X connect 15 0 5 0;
#X connect 18 0 2 0;
#X connect 19 0 0 0;
#X restore 1031 487 pd pan;
#X obj 1136 27 spigot;
#X obj 1169 -1 tgl 15 0 empty empty empty 17 7 0 10 -262144 -1 -1 0
1;
#X obj 1169 -27 r Scene9;
#X obj 1136 49 bng 15 250 50 0 empty empty empty 17 7 0 10 -262144
-1 -1;
#X floatatom 1136 89 5 0 0 0 - - -;
#X obj 1153 182 bng 15 250 50 0 empty empty empty 17 7 0 10 -262144
-1 -1;
#X obj 1170 182 bng 15 250 50 0 empty empty empty 17 7 0 10 -262144
-1 -1;
#X obj 1136 182 bng 15 250 50 0 empty empty empty 17 7 0 10 -262144
-1 -1;
#X obj 1031 370 bng 15 250 50 0 empty empty empty 17 7 0 10 -262144
-1 -1;
#X obj 1031 399 allpianoSoundLoader 11;
#X obj 819 250 allpianoSoundLoader 3;
#X obj 854 405 allpianoSoundLoader 5;
#X obj 785 204 allpianoSoundLoader 1;
#X obj 802 226 allpianoSoundLoader 2;
#X obj 1136 204 allpianoSoundLoader 4;
#X obj 864 425 allpianoSoundLoader 6;
#X obj 1153 227 allpianoSoundLoader 5;
#X obj 1170 250 allpianoSoundLoader 6;
#X obj 1048 419 allpianoSoundLoader 12;
#X obj 1031 262 JumpDetect;
#X obj 1031 294 bng 15 250 50 0 empty empty empty 17 7 0 10 -262144
-1 -1;
#X obj 1079 443 *~ 0.8;
#X obj 1031 444 *~ 0.8;
#X floatatom 1136 136 5 0 0 0 - - -;
#X obj 34 1 bng 15 250 50 0 empty empty empty 17 7 0 10 -262144 -1
-1;
#X obj 52 1 bng 15 250 50 0 empty empty empty 17 7 0 10 -262144 -1
-1;
#X obj 71 1 bng 15 250 50 0 empty empty empty 17 7 0 10 -262144 -1
-1;
#X obj 90 1 bng 15 250 50 0 empty empty empty 17 7 0 10 -262144 -1
-1;
#X obj 109 1 bng 15 250 50 0 empty empty empty 17 7 0 10 -262144 -1
-1;
#X obj 127 1 bng 15 250 50 0 empty empty empty 17 7 0 10 -262144 -1
-1;
#X obj 146 1 bng 15 250 50 0 empty empty empty 17 7 0 10 -262144 -1
-1;
#X obj 165 1 bng 15 250 50 0 empty empty empty 17 7 0 10 -262144 -1
-1;
#X obj 184 1 bng 15 250 50 0 empty empty empty 17 7 0 10 -262144 -1
-1;
#X obj 203 1 bng 15 250 50 0 empty empty empty 17 7 0 10 -262144 -1
-1;
#X obj 221 1 bng 15 250 50 0 empty empty empty 17 7 0 10 -262144 -1
-1;
#X obj 240 1 bng 15 250 50 0 empty empty empty 17 7 0 10 -262144 -1
-1;
#X obj 259 1 bng 15 250 50 0 empty empty empty 17 7 0 10 -262144 -1
-1;
#X obj 278 1 bng 15 250 50 0 empty empty empty 17 7 0 10 -262144 -1
-1;
#X obj 297 1 bng 15 250 50 0 empty empty empty 17 7 0 10 -262144 -1
-1;
#X obj 315 1 bng 15 250 50 0 empty empty empty 17 7 0 10 -262144 -1
-1;
#X obj 334 1 bng 15 250 50 0 empty empty empty 17 7 0 10 -262144 -1
-1;
#X obj 353 1 bng 15 250 50 0 empty empty empty 17 7 0 10 -262144 -1
-1;
#X obj 372 1 bng 15 250 50 0 empty empty empty 17 7 0 10 -262144 -1
-1;
#X obj 403 1 bng 15 250 50 0 empty empty empty 17 7 0 10 -262144 -1
-1;
#X obj 421 1 bng 15 250 50 0 empty empty empty 17 7 0 10 -262144 -1
-1;
#X obj 440 1 bng 15 250 50 0 empty empty empty 17 7 0 10 -262144 -1
-1;
#X obj 459 1 bng 15 250 50 0 empty empty empty 17 7 0 10 -262144 -1
-1;
#X obj 478 1 bng 15 250 50 0 empty empty empty 17 7 0 10 -262144 -1
-1;
#X obj 497 1 bng 15 250 50 0 empty empty empty 17 7 0 10 -262144 -1
-1;
#X obj 516 1 bng 15 250 50 0 empty empty empty 17 7 0 10 -262144 -1
-1;
#X obj 534 1 bng 15 250 50 0 empty empty empty 17 7 0 10 -262144 -1
-1;
#X obj 553 1 bng 15 250 50 0 empty empty empty 17 7 0 10 -262144 -1
-1;
#X obj 572 1 bng 15 250 50 0 empty empty empty 17 7 0 10 -262144 -1
-1;
#X obj 591 1 bng 15 250 50 0 empty empty empty 17 7 0 10 -262144 -1
-1;
#X obj 610 1 bng 15 250 50 0 empty empty empty 17 7 0 10 -262144 -1
-1;
#X obj 629 1 bng 15 250 50 0 empty empty empty 17 7 0 10 -262144 -1
-1;
#X obj 647 1 bng 15 250 50 0 empty empty empty 17 7 0 10 -262144 -1
-1;
#X obj 666 1 bng 15 250 50 0 empty empty empty 17 7 0 10 -262144 -1
-1;
#X obj 685 1 bng 15 250 50 0 empty empty empty 17 7 0 10 -262144 -1
-1;
#X obj 704 1 bng 15 250 50 0 empty empty empty 17 7 0 10 -262144 -1
-1;
#X obj 723 1 bng 15 250 50 0 empty empty empty 17 7 0 10 -262144 -1
-1;
#N canvas 651 23 866 595 SoundLoaderConsole2 0;
#X obj 320 220 allpianoSoundLoader 79;
#X obj 579 359 allpianoSoundLoader 89;
#X obj 61 68 allpianoSoundLoader 72;
#X obj 98 90 allpianoSoundLoader 73;
#X obj 135 112 allpianoSoundLoader 74;
#X obj 172 133 allpianoSoundLoader 75;
#X obj 209 155 allpianoSoundLoader 76;
#X obj 246 176 allpianoSoundLoader 77;
#X obj 283 200 allpianoSoundLoader 78;
#X obj 357 240 allpianoSoundLoader 80;
#X obj 394 260 allpianoSoundLoader 81;
#X obj 431 280 allpianoSoundLoader 82;
#X obj 468 300 allpianoSoundLoader 84;
#X obj 505 320 allpianoSoundLoader 85;
#X obj 542 338 allpianoSoundLoader 87;
#X obj 616 380 allpianoSoundLoader 92;
#X obj 653 401 allpianoSoundLoader 93;
#X obj 690 422 allpianoSoundLoader 94;
#X obj 61 38 inlet;
#X obj 98 38 inlet;
#X obj 135 38 inlet;
#X obj 172 38 inlet;
#X obj 209 38 inlet;
#X obj 246 38 inlet;
#X obj 283 38 inlet;
#X obj 320 38 inlet;
#X obj 357 38 inlet;
#X obj 394 38 inlet;
#X obj 431 38 inlet;
#X obj 468 38 inlet;
#X obj 505 38 inlet;
#X obj 542 38 inlet;
#X obj 579 38 inlet;
#X obj 616 38 inlet;
#X obj 653 38 inlet;
#X obj 690 38 inlet;
#X obj 61 456 outlet~;
#N canvas 589 370 450 300 KICKDetect 0;
#X obj 78 196 DelayEffect;
#X obj 194 65 bng 15 250 50 0 empty empty empty 17 7 0 10 -262144 -1
-1;
#X msg 194 122 0;
#X obj 194 33 r KICKL;
#X obj 246 33 r KICKR;
#X obj 78 169 *~ 1.2;
#X obj 226 122 bng 15 250 50 0 empty empty empty 17 7 0 10 -262144
-1 -1;
#X msg 163 101 1.2;
#X obj 226 165 line;
#X floatatom 111 144 5 0 0 0 - - -;
#X msg 226 142 1.2 \, 0 200;
#X obj 78 244 outlet~;
#X obj 78 93 inlet~;
#X obj 194 100 delay 500;
#X connect 0 0 11 0;
#X connect 1 0 7 0;
#X connect 1 0 13 0;
#X connect 3 0 1 0;
#X connect 4 0 1 0;
#X connect 5 0 0 0;
#X connect 6 0 10 0;
#X connect 7 0 9 0;
#X connect 8 0 9 0;
#X connect 9 0 5 1;
#X connect 10 0 8 0;
#X connect 12 0 5 0;
#X connect 13 0 2 0;
#X connect 13 0 6 0;
#X restore 394 461 pd KICKDetect;
#X obj 562 172 metro 1000;
#X obj 563 135 tgl 15 0 empty empty empty 17 7 0 10 -262144 -1 -1 0
1;
#X connect 0 0 36 0;
#X connect 1 0 36 0;
#X connect 1 0 37 0;
#X connect 2 0 36 0;
#X connect 3 0 36 0;
#X connect 4 0 36 0;
#X connect 5 0 36 0;
#X connect 6 0 36 0;
#X connect 7 0 36 0;
#X connect 8 0 36 0;
#X connect 9 0 36 0;
#X connect 10 0 36 0;
#X connect 10 0 37 0;
#X connect 11 0 36 0;
#X connect 11 0 37 0;
#X connect 12 0 36 0;
#X connect 12 0 37 0;
#X connect 13 0 36 0;
#X connect 13 0 37 0;
#X connect 14 0 36 0;
#X connect 14 0 37 0;
#X connect 15 0 36 0;
#X connect 15 0 37 0;
#X connect 16 0 36 0;
#X connect 16 0 37 0;
#X connect 17 0 36 0;
#X connect 17 0 37 0;
#X connect 18 0 2 0;
#X connect 19 0 3 0;
#X connect 20 0 4 0;
#X connect 21 0 5 0;
#X connect 22 0 6 0;
#X connect 23 0 7 0;
#X connect 24 0 8 0;
#X connect 25 0 0 0;
#X connect 26 0 9 0;
#X connect 27 0 10 0;
#X connect 28 0 11 0;
#X connect 29 0 12 0;
#X connect 30 0 13 0;
#X connect 31 0 14 0;
#X connect 32 0 1 0;
#X connect 33 0 15 0;
#X connect 34 0 16 0;
#X connect 35 0 17 0;
#X connect 38 0 11 0;
#X connect 39 0 38 0;
#X restore 403 64 pd SoundLoaderConsole2 Recieve72-94;
#N canvas 27 26 953 563 SoundLoaderConsole1 0;
#X obj 58 74 allpianoSoundLoader 49;
#X obj 95 96 allpianoSoundLoader 51;
#X obj 132 117 allpianoSoundLoader 53;
#X obj 169 137 allpianoSoundLoader 54;
#X obj 206 159 allpianoSoundLoader 56;
#X obj 243 181 allpianoSoundLoader 57;
#X obj 280 203 allpianoSoundLoader 58;
#X obj 317 224 allpianoSoundLoader 59;
#X obj 354 245 allpianoSoundLoader 61;
#X obj 391 267 allpianoSoundLoader 62;
#X obj 428 288 allpianoSoundLoader 63;
#X obj 465 310 allpianoSoundLoader 64;
#X obj 502 331 allpianoSoundLoader 65;
#X obj 539 352 allpianoSoundLoader 66;
#X obj 576 371 allpianoSoundLoader 67;
#X obj 613 391 allpianoSoundLoader 68;
#X obj 650 411 allpianoSoundLoader 69;
#X obj 687 430 allpianoSoundLoader 70;
#X obj 724 450 allpianoSoundLoader 71;
#X obj 58 467 outlet~;
#X obj 58 33 inlet;
#X obj 95 33 inlet;
#X obj 132 33 inlet;
#X obj 169 33 inlet;
#X obj 206 33 inlet;
#X obj 243 33 inlet;
#X obj 280 33 inlet;
#X obj 317 33 inlet;
#X obj 354 33 inlet;
#X obj 391 33 inlet;
#X obj 428 33 inlet;
#X obj 465 33 inlet;
#X obj 502 33 inlet;
#X obj 539 33 inlet;
#X obj 576 33 inlet;
#X obj 613 33 inlet;
#X obj 650 33 inlet;
#X obj 687 33 inlet;
#X obj 724 33 inlet;
#X connect 0 0 19 0;
#X connect 1 0 19 0;
#X connect 2 0 19 0;
#X connect 3 0 19 0;
#X connect 4 0 19 0;
#X connect 5 0 19 0;
#X connect 6 0 19 0;
#X connect 7 0 19 0;
#X connect 8 0 19 0;
#X connect 9 0 19 0;
#X connect 10 0 19 0;
#X connect 11 0 19 0;
#X connect 12 0 19 0;
#X connect 13 0 19 0;
#X connect 14 0 19 0;
#X connect 15 0 19 0;
#X connect 16 0 19 0;
#X connect 17 0 19 0;
#X connect 18 0 19 0;
#X connect 20 0 0 0;
#X connect 21 0 1 0;
#X connect 22 0 2 0;
#X connect 23 0 3 0;
#X connect 24 0 4 0;
#X connect 25 0 5 0;
#X connect 26 0 6 0;
#X connect 27 0 7 0;
#X connect 28 0 8 0;
#X connect 29 0 9 0;
#X connect 30 0 10 0;
#X connect 31 0 11 0;
#X connect 32 0 12 0;
#X connect 33 0 13 0;
#X connect 34 0 14 0;
#X connect 35 0 15 0;
#X connect 36 0 16 0;
#X connect 37 0 17 0;
#X connect 38 0 18 0;
#X restore 34 64 pd SoundLoaderConsole1 Recieve49-71;
#X obj 1136 111 IgnoreSameNumber;
#X obj 1136 159 sel 1 9 14;
#X obj 1136 68 random 30;
#X connect 0 0 2 0;
#X connect 2 0 12 0;
#X connect 3 0 2 1;
#X connect 5 0 22 0;
#X connect 5 0 23 0;
#X connect 6 0 5 0;
#X connect 7 0 20 0;
#X connect 8 0 0 0;
#X connect 9 0 10 0;
#X connect 10 0 0 0;
#X connect 10 0 12 1;
#X connect 11 0 8 0;
#X connect 11 0 37 0;
#X connect 12 0 7 0;
#X connect 13 0 3 0;
#X connect 13 0 9 0;
#X connect 15 0 14 0;
#X connect 16 0 17 0;
#X connect 17 0 19 0;
#X connect 18 0 51 0;
#X connect 19 0 18 0;
#X connect 20 0 49 0;
#X connect 20 1 50 0;
#X connect 20 2 47 0;
#X connect 20 3 50 0;
#X connect 20 4 31 0;
#X connect 21 0 1 0;
#X connect 22 0 61 0;
#X connect 22 1 62 0;
#X connect 22 2 63 0;
#X connect 22 3 64 0;
#X connect 22 4 65 0;
#X connect 22 5 66 0;
#X connect 22 6 67 0;
#X connect 22 7 68 0;
#X connect 22 8 69 0;
#X connect 22 9 70 0;
#X connect 22 10 71 0;
#X connect 22 11 72 0;
#X connect 22 12 73 0;
#X connect 22 13 74 0;
#X connect 22 14 75 0;
#X connect 22 15 76 0;
#X connect 22 16 77 0;
#X connect 22 17 78 0;
#X connect 22 18 79 0;
#X connect 23 0 80 0;
#X connect 23 1 81 0;
#X connect 23 2 82 0;
#X connect 23 3 83 0;
#X connect 23 4 84 0;
#X connect 23 5 85 0;
#X connect 23 6 86 0;
#X connect 23 7 87 0;
#X connect 23 8 88 0;
#X connect 23 9 89 0;
#X connect 23 10 90 0;
#X connect 23 11 91 0;
#X connect 23 12 92 0;
#X connect 23 13 93 0;
#X connect 23 14 94 0;
#X connect 23 15 95 0;
#X connect 23 16 96 0;
#X connect 23 17 97 0;
#X connect 24 0 11 0;
#X connect 25 0 48 0;
#X connect 26 0 52 0;
#X connect 30 0 25 0;
#X connect 30 1 26 0;
#X connect 31 0 30 0;
#X connect 32 0 45 0;
#X connect 33 0 32 1;
#X connect 34 0 33 0;
#X connect 35 0 1 0;
#X connect 36 0 28 0;
#X connect 36 1 29 0;
#X connect 37 0 40 0;
#X connect 38 0 37 1;
#X connect 39 0 38 0;
#X connect 40 0 102 0;
#X connect 41 0 100 0;
#X connect 42 0 53 0;
#X connect 43 0 54 0;
#X connect 44 0 51 0;
#X connect 45 0 46 0;
#X connect 45 0 55 0;
#X connect 46 0 59 0;
#X connect 47 0 21 0;
#X connect 47 1 15 0;
#X connect 48 0 35 0;
#X connect 49 0 21 0;
#X connect 49 1 15 0;
#X connect 50 0 21 0;
#X connect 50 1 15 0;
#X connect 51 0 35 0;
#X connect 52 0 35 0;
#X connect 53 0 36 0;
#X connect 53 0 36 1;
#X connect 54 0 36 1;
#X connect 54 0 36 0;
#X connect 55 0 58 0;
#X connect 56 0 57 0;
#X connect 57 0 32 0;
#X connect 58 0 36 1;
#X connect 59 0 36 0;
#X connect 60 0 101 0;
#X connect 61 0 99 0;
#X connect 62 0 99 1;
#X connect 63 0 99 2;
#X connect 64 0 99 3;
#X connect 65 0 99 4;
#X connect 66 0 99 5;
#X connect 67 0 99 6;
#X connect 68 0 99 7;
#X connect 69 0 99 8;
#X connect 70 0 99 9;
#X connect 71 0 99 10;
#X connect 72 0 99 11;
#X connect 73 0 99 12;
#X connect 74 0 99 13;
#X connect 75 0 99 14;
#X connect 76 0 99 15;
#X connect 77 0 99 16;
#X connect 78 0 99 17;
#X connect 79 0 99 18;
#X connect 80 0 98 0;
#X connect 81 0 98 1;
#X connect 82 0 98 2;
#X connect 83 0 98 3;
#X connect 84 0 98 4;
#X connect 85 0 98 5;
#X connect 86 0 98 6;
#X connect 87 0 98 7;
#X connect 88 0 98 8;
#X connect 89 0 98 9;
#X connect 90 0 98 10;
#X connect 91 0 98 11;
#X connect 92 0 98 12;
#X connect 93 0 98 13;
#X connect 94 0 98 14;
#X connect 95 0 98 15;
#X connect 96 0 98 16;
#X connect 97 0 98 17;
#X connect 98 0 4 0;
#X connect 99 0 4 0;
#X connect 100 0 60 0;
#X connect 101 0 44 0;
#X connect 101 1 42 0;
#X connect 101 2 43 0;
#X connect 102 0 41 0;
#X restore -477 243 pd pianoWAVplayer;
#N canvas 197 23 462 425 FadeIN 0;
#X obj 17 298 *~;
#X obj -17 254 inlet~;
#X obj 17 339 outlet~;
#X obj 53 259 snapshot~;
#X floatatom 53 297 5 0 0 0 - - -;
#X obj 70 230 bng 15 250 50 0 empty empty empty 17 7 0 10 -262144 -1
-1;
#X obj 32 230 line~;
#X obj 32 97 sel 1 0;
#X obj 32 71 tgl 15 0 empty empty empty 17 7 0 10 -262144 -1 -1 1 1
;
#X obj 32 134 bng 15 250 50 0 empty empty empty 17 7 0 10 -262144 -1
-1;
#X obj 51 134 bng 15 250 50 0 empty empty empty 17 7 0 10 -262144 -1
-1;
#X obj 32 32 loadbang;
#X msg 32 198 0 \, 1 3000;
#X obj 98 97 r reset;
#X obj 98 135 bng 15 250 50 0 empty empty empty 17 7 0 10 -262144 -1
-1;
#X obj 154 120 sel 1;
#X obj 154 147 bng 15 250 50 0 empty empty empty 17 7 0 10 -262144
-1 -1;
#X msg 98 197 1 \, 0 2000;
#X obj 154 96 r Scene1;
#X connect 0 0 2 0;
#X connect 1 0 0 0;
#X connect 3 0 4 0;
#X connect 5 0 3 0;
#X connect 6 0 3 0;
#X connect 6 0 0 1;
#X connect 7 0 9 0;
#X connect 7 1 10 0;
#X connect 8 0 7 0;
#X connect 9 0 12 0;
#X connect 10 0 17 0;
#X connect 11 0 8 0;
#X connect 12 0 6 0;
#X connect 13 0 14 0;
#X connect 14 0 17 0;
#X connect 15 0 16 0;
#X connect 16 0 12 0;
#X connect 17 0 6 0;
#X connect 18 0 15 0;
#X restore -477 276 pd FadeIN;
#X obj -451 387 dac~ 1 2;
#N canvas 553 398 453 436 panEffectL 0;
#X obj 174 83 *~;
#X obj 174 125 hip~ 5;
#X obj 268 81 *~;
#X obj 268 123 hip~ 5;
#X floatatom 189 -58 5 0 0 0 - - -;
#X obj 192 -85 hsl 128 15 0 127 0 0 empty empty empty -2 -8 0 10 -262144
-1 -1 7961 1;
#X obj 189 -32 * 0.01;
#X obj 189 24 pack 0 100;
#X obj 283 24 pack 0 100;
#X obj 283 -2 expr 1- $f1;
#X obj 189 56 line~;
#X obj 283 56 line~;
#X floatatom 189 -172 5 0 0 0 - - -;
#X floatatom 189 -130 5 0 0 0 - - -;
#X obj 174 153 outlet~;
#X obj 268 154 outlet~;
#X obj 241 56 inlet~;
#X obj 138 56 inlet~;
#X obj 189 -152 * 50;
#X floatatom 264 -26 5 0 0 0 - - -;
#X floatatom 139 31 5 0 0 0 - - -;
#X floatatom 331 55 5 0 0 0 - - -;
#X obj 264 -166 loadbang;
#X msg 264 -135 65;
#X obj 189 -110 + 80;
#X obj 189 -206 r accXL;
#X connect 0 0 1 0;
#X connect 1 0 14 0;
#X connect 2 0 3 0;
#X connect 3 0 15 0;
#X connect 4 0 6 0;
#X connect 5 0 4 0;
#X connect 6 0 7 0;
#X connect 6 0 9 0;
#X connect 6 0 19 0;
#X connect 7 0 10 0;
#X connect 7 0 20 0;
#X connect 8 0 11 0;
#X connect 8 0 21 0;
#X connect 9 0 8 0;
#X connect 10 0 0 1;
#X connect 11 0 2 1;
#X connect 12 0 18 0;
#X connect 13 0 24 0;
#X connect 16 0 2 0;
#X connect 17 0 0 0;
#X connect 18 0 13 0;
#X connect 22 0 23 0;
#X connect 23 0 5 0;
#X connect 24 0 5 0;
#X connect 25 0 12 0;
#X restore -514 308 pd panEffectL;
#N canvas 555 23 385 524 panEffectR 0;
#X obj 64 103 *~;
#X obj 64 145 hip~ 5;
#X obj 157 101 *~;
#X obj 157 143 hip~ 5;
#X floatatom 79 -20 5 0 0 0 - - -;
#X obj 82 -45 hsl 128 15 0 127 0 0 empty empty empty -2 -8 0 10 -262144
-1 -1 4234 1;
#X obj 79 44 pack 0 100;
#X obj 172 34 pack 0 100;
#X obj 172 8 expr 1- $f1;
#X obj 79 76 line~;
#X obj 172 76 line~;
#X floatatom 78 -204 5 0 0 0 - - -;
#X floatatom 78 -160 5 0 0 0 - - -;
#X obj 64 173 outlet~;
#X obj 157 174 outlet~;
#X obj 130 76 inlet~;
#X obj 28 76 inlet~;
#X obj 78 -182 * 50;
#X obj 79 6 * 0.01;
#X floatatom 38 49 5 0 0 0 - - -;
#X floatatom 218 76 5 0 0 0 - - -;
#X floatatom 78 -117 5 0 0 0 - - -;
#X obj 79 -95 * -1;
#X floatatom 79 -69 5 0 0 0 - - -;
#X obj 134 -104 loadbang;
#X msg 134 -73 65;
#X obj 78 -140 - 40;
#X obj 78 -250 r accXR;
#X connect 0 0 1 0;
#X connect 1 0 13 0;
#X connect 2 0 3 0;
#X connect 3 0 14 0;
#X connect 4 0 18 0;
#X connect 5 0 4 0;
#X connect 6 0 9 0;
#X connect 6 0 19 0;
#X connect 7 0 10 0;
#X connect 7 0 20 0;
#X connect 8 0 7 0;
#X connect 9 0 0 1;
#X connect 10 0 2 1;
#X connect 11 0 17 0;
#X connect 12 0 26 0;
#X connect 15 0 2 0;
#X connect 16 0 0 0;
#X connect 17 0 12 0;
#X connect 18 0 6 0;
#X connect 18 0 8 0;
#X connect 21 0 22 0;
#X connect 22 0 23 0;
#X connect 23 0 5 0;
#X connect 24 0 25 0;
#X connect 25 0 5 0;
#X connect 26 0 21 0;
#X connect 27 0 11 0;
#X restore -423 308 pd panEffectR;
#X obj -409 22 cnv 20 170 30 empty empty empty 20 12 0 14 -258113 -66577
0;
#N canvas 647 167 815 711 SceneSelector 1;
#X obj 46 23 r StepSUM;
#X floatatom 46 55 5 0 0 0 - - -;
#X obj 46 667 s Scene1;
#X msg 46 583 1;
#X msg 72 583 0;
#X obj 213 53 s GestureL1;
#X msg 120 583 1;
#X msg 146 583 0;
#X obj 120 667 s Scene2;
#X msg 191 583 1;
#X msg 217 583 0;
#X obj 191 667 s Scene3;
#X msg 260 583 1;
#X msg 286 583 0;
#X msg 334 583 1;
#X msg 360 583 0;
#X msg 405 583 1;
#X msg 431 583 0;
#X obj 260 667 s Scene4;
#X obj 334 667 s Scene5;
#X obj 405 667 s Scene6;
#X msg 469 583 1;
#X msg 495 583 0;
#X msg 538 583 1;
#X msg 564 583 0;
#X obj 469 667 s Scene7;
#X obj 538 667 s Scene8;
#X obj 456 359 s Scene9;
#X text 51 93 Scene Selector;
#X obj 415 181 s Scene11;
#X msg 415 157 1;
#X obj 72 635 tgl 15 0 empty empty empty 17 7 0 10 -262144 -1 -1 1
1;
#X obj 146 635 tgl 15 0 empty empty empty 17 7 0 10 -262144 -1 -1 0
1;
#X obj 217 635 tgl 15 0 empty empty empty 17 7 0 10 -262144 -1 -1 0
1;
#X obj 286 635 tgl 15 0 empty empty empty 17 7 0 10 -262144 -1 -1 0
1;
#X obj 360 635 tgl 15 0 empty empty empty 17 7 0 10 -262144 -1 -1 0
1;
#X obj 431 635 tgl 15 0 empty empty empty 17 7 0 10 -262144 -1 -1 0
1;
#X obj 495 635 tgl 15 0 empty empty empty 17 7 0 10 -262144 -1 -1 0
1;
#X obj 564 635 tgl 15 0 empty empty empty 17 7 0 10 -262144 -1 -1 0
1;
#N canvas 26 191 418 385 recieve1stepSwitcher 0;
#X floatatom -3 263 5 0 0 0 - - -;
#X floatatom 84 263 5 0 0 0 - - -;
#X msg -3 229 1;
#X msg 23 229 0;
#X obj 23 208 bng 15 250 50 0 empty empty empty 17 7 0 10 -262144 -1
-1;
#X obj 84 208 bng 15 250 50 0 empty empty empty 17 7 0 10 -262144 -1
-1;
#X msg 84 229 1;
#X msg 109 229 0;
#X obj 109 208 bng 15 250 50 0 empty empty empty 17 7 0 10 -262144
-1 -1;
#X obj -3 208 bng 15 250 50 0 empty empty empty 17 7 0 10 -262144 -1
-1;
#X floatatom 166 263 5 0 0 0 - - -;
#X obj 166 208 bng 15 250 50 0 empty empty empty 17 7 0 10 -262144
-1 -1;
#X msg 166 229 1;
#X msg 191 229 0;
#X obj 191 208 bng 15 250 50 0 empty empty empty 17 7 0 10 -262144
-1 -1;
#X floatatom 263 263 5 0 0 0 - - -;
#X obj 263 208 bng 15 250 50 0 empty empty empty 17 7 0 10 -262144
-1 -1;
#X msg 263 229 1;
#X msg 288 229 0;
#X obj 288 208 bng 15 250 50 0 empty empty empty 17 7 0 10 -262144
-1 -1;
#X obj -3 334 outlet;
#X obj 84 334 outlet;
#X obj 166 334 outlet;
#X obj 263 334 outlet;
#X obj -3 44 bng 15 250 50 0 empty empty empty 17 7 0 10 -262144 -1
-1;
#N canvas 178 302 450 300 counter4 0;
#X obj 90 -726 bng 15 250 50 0 empty empty empty 17 7 0 10 -262144
-1 -1;
#X msg 90 -704 1;
#X obj 90 -679 +;
#X floatatom 141 -679 5 0 0 0 - - -;
#X msg 141 -704 0;
#X obj 141 -726 bng 15 250 50 0 empty empty empty 17 7 0 10 -262144
-1 -1;
#X obj 90 -755 inlet;
#X obj 141 -756 inlet;
#X obj 141 -639 outlet;
#X obj 186 -677 sel 4;
#X connect 0 0 1 0;
#X connect 1 0 2 0;
#X connect 2 0 3 0;
#X connect 3 0 2 1;
#X connect 3 0 8 0;
#X connect 3 0 9 0;
#X connect 4 0 2 1;
#X connect 5 0 4 0;
#X connect 6 0 0 0;
#X connect 7 0 5 0;
#X connect 9 0 5 0;
#X restore -3 66 pd counter4;
#X floatatom -3 94 5 0 0 0 - - -;
#X obj -3 120 sel 1 2 3 4;
#X obj -3 18 r getGestureL;
#X connect 0 0 20 0;
#X connect 1 0 21 0;
#X connect 2 0 0 0;
#X connect 3 0 0 0;
#X connect 4 0 3 0;
#X connect 5 0 6 0;
#X connect 6 0 1 0;
#X connect 7 0 1 0;
#X connect 8 0 7 0;
#X connect 9 0 2 0;
#X connect 10 0 22 0;
#X connect 11 0 12 0;
#X connect 12 0 10 0;
#X connect 13 0 10 0;
#X connect 14 0 13 0;
#X connect 15 0 23 0;
#X connect 16 0 17 0;
#X connect 17 0 15 0;
#X connect 18 0 15 0;
#X connect 19 0 18 0;
#X connect 24 0 25 0;
#X connect 25 0 26 0;
#X connect 26 0 27 0;
#X connect 27 0 9 0;
#X connect 27 0 8 0;
#X connect 27 0 14 0;
#X connect 27 0 19 0;
#X connect 27 1 5 0;
#X connect 27 1 4 0;
#X connect 27 1 14 0;
#X connect 27 1 19 0;
#X connect 27 2 11 0;
#X connect 27 2 4 0;
#X connect 27 2 8 0;
#X connect 27 2 19 0;
#X connect 27 3 16 0;
#X connect 27 3 14 0;
#X connect 27 3 8 0;
#X connect 27 3 4 0;
#X connect 28 0 24 0;
#X restore 213 24 pd recieve1stepSwitcher;
#X obj 258 73 s GestureL2;
#X obj 303 53 s GestureL3;
#X obj 348 73 s GestureL4;
#X text 362 24 For Each Scene;
#X msg 456 310 1;
#X obj 456 335 tgl 15 0 empty empty empty 17 7 0 10 -262144 -1 -1 0
1;
#X msg 484 310 0;
#X msg 530 309 1;
#X obj 530 334 tgl 15 0 empty empty empty 17 7 0 10 -262144 -1 -1 0
1;
#X msg 558 309 0;
#X obj 530 358 s Scene10;
#X text 547 332 granular;
#X text 473 334 pf spark;
#X msg 601 308 1;
#X obj 601 333 tgl 15 0 empty empty empty 17 7 0 10 -262144 -1 -1 0
1;
#X msg 629 308 0;
#X obj 601 357 s Scene11;
#X obj 46 111 sel 1 5 9 13 17 21 27 30 37 43 47;
#X text 618 331 random rew;
#X connect 0 0 1 0;
#X connect 1 0 57 0;
#X connect 3 0 2 0;
#X connect 3 0 31 0;
#X connect 4 0 2 0;
#X connect 4 0 31 0;
#X connect 6 0 8 0;
#X connect 6 0 32 0;
#X connect 7 0 8 0;
#X connect 7 0 32 0;
#X connect 9 0 11 0;
#X connect 9 0 33 0;
#X connect 10 0 11 0;
#X connect 10 0 33 0;
#X connect 12 0 18 0;
#X connect 12 0 34 0;
#X connect 13 0 18 0;
#X connect 13 0 34 0;
#X connect 14 0 19 0;
#X connect 14 0 35 0;
#X connect 15 0 19 0;
#X connect 15 0 35 0;
#X connect 16 0 20 0;
#X connect 16 0 36 0;
#X connect 17 0 20 0;
#X connect 17 0 36 0;
#X connect 21 0 25 0;
#X connect 21 0 37 0;
#X connect 22 0 25 0;
#X connect 22 0 37 0;
#X connect 23 0 26 0;
#X connect 23 0 38 0;
#X connect 24 0 26 0;
#X connect 24 0 38 0;
#X connect 30 0 29 0;
#X connect 39 0 5 0;
#X connect 39 1 40 0;
#X connect 39 2 41 0;
#X connect 39 3 42 0;
#X connect 44 0 45 0;
#X connect 45 0 27 0;
#X connect 46 0 45 0;
#X connect 47 0 48 0;
#X connect 48 0 50 0;
#X connect 49 0 48 0;
#X connect 53 0 54 0;
#X connect 54 0 56 0;
#X connect 55 0 54 0;
#X connect 57 0 3 0;
#X connect 57 0 7 0;
#X connect 57 0 10 0;
#X connect 57 0 13 0;
#X connect 57 0 15 0;
#X connect 57 0 17 0;
#X connect 57 0 22 0;
#X connect 57 0 24 0;
#X connect 57 0 46 0;
#X connect 57 0 49 0;
#X connect 57 0 55 0;
#X connect 57 1 4 0;
#X connect 57 1 6 0;
#X connect 57 1 10 0;
#X connect 57 1 13 0;
#X connect 57 1 15 0;
#X connect 57 1 17 0;
#X connect 57 1 22 0;
#X connect 57 1 24 0;
#X connect 57 2 4 0;
#X connect 57 2 7 0;
#X connect 57 2 9 0;
#X connect 57 2 13 0;
#X connect 57 2 15 0;
#X connect 57 2 17 0;
#X connect 57 2 22 0;
#X connect 57 2 24 0;
#X connect 57 3 4 0;
#X connect 57 3 7 0;
#X connect 57 3 10 0;
#X connect 57 3 12 0;
#X connect 57 3 15 0;
#X connect 57 3 17 0;
#X connect 57 3 22 0;
#X connect 57 3 24 0;
#X connect 57 4 4 0;
#X connect 57 4 7 0;
#X connect 57 4 10 0;
#X connect 57 4 13 0;
#X connect 57 4 14 0;
#X connect 57 4 17 0;
#X connect 57 4 22 0;
#X connect 57 4 24 0;
#X connect 57 5 4 0;
#X connect 57 5 7 0;
#X connect 57 5 10 0;
#X connect 57 5 13 0;
#X connect 57 5 15 0;
#X connect 57 5 16 0;
#X connect 57 5 22 0;
#X connect 57 5 24 0;
#X connect 57 6 4 0;
#X connect 57 6 7 0;
#X connect 57 6 10 0;
#X connect 57 6 13 0;
#X connect 57 6 15 0;
#X connect 57 6 17 0;
#X connect 57 6 21 0;
#X connect 57 6 24 0;
#X connect 57 7 4 0;
#X connect 57 7 7 0;
#X connect 57 7 10 0;
#X connect 57 7 13 0;
#X connect 57 7 15 0;
#X connect 57 7 17 0;
#X connect 57 7 22 0;
#X connect 57 7 23 0;
#X connect 57 8 44 0;
#X connect 57 9 47 0;
#X connect 57 10 53 0;
#X restore -373 27 pd SceneSelector;
#X text -566 230 Audio Effect;
#X text -513 182 Each Shoes;
#X text -534 201 !!Current Criteria is OrpheLEFT!!;
#X connect 0 0 8 0;
#X connect 1 0 0 0;
#X connect 1 0 3 0;
#X connect 2 0 1 0;
#X connect 3 0 9 0;
#X connect 4 0 5 0;
#X connect 4 0 6 0;
#X connect 5 0 8 1;
#X connect 6 0 9 1;
#X connect 11 0 12 0;
#X connect 11 1 12 0;
#X connect 11 2 13 0;
#X connect 11 3 13 1;
#X connect 12 0 14 0;
#X connect 12 0 14 1;
#X connect 12 0 15 0;
#X connect 12 0 15 1;
#X connect 14 0 13 0;
#X connect 14 1 13 1;
#X connect 15 0 13 0;
#X connect 15 1 13 1;
