#N canvas 0 22 450 300 10;
#X obj 37 219 outlet;
#N canvas 89 403 450 300 onebang-spigot 1;
#X obj 94 -38 spigot;
#N canvas 670 314 450 300 onebang 1;
#X obj 109 -162 loadbang;
#X msg 168 -131 1;
#X msg 200 -131 0;
#X obj 168 -231 inlet;
#X obj 200 -158 inlet;
#X obj 168 -102 outlet;
#X obj 200 -80 outlet;
#X obj 168 -192 delay 80;
#X connect 0 0 1 0;
#X connect 1 0 5 0;
#X connect 2 0 6 0;
#X connect 3 0 7 0;
#X connect 4 0 2 0;
#X connect 7 0 1 0;
#X restore 161 -36 pd onebang;
#X obj 94 -82 inlet;
#X obj 94 7 outlet;
#X connect 0 0 1 1;
#X connect 0 0 1 0;
#X connect 0 0 3 0;
#X connect 1 0 0 1;
#X connect 1 1 0 1;
#X connect 2 0 0 0;
#X restore 37 135 pd onebang-spigot;
#X obj 37 67 inlet;
#X connect 1 0 0 0;
#X connect 2 0 1 0;
