#N canvas 126 251 822 480 10;
#X obj 128 88 unpack f f f f f f f f f f f f f f f f;
#X symbolatom 373 123 10 0 0 0 - - -;
#X symbolatom 448 123 10 0 0 0 - - -;
#X symbolatom 523 123 10 0 0 0 - - -;
#X obj 373 86 unpack s s s f;
#X floatatom 598 123 5 0 0 0 - - -;
#X text 377 137 kind;
#X text 451 137 direction;
#X text 526 137 position;
#X text 602 137 power;
#X obj 128 25 route sensorValues;
#X obj 373 25 route gesture;
#X obj 128 -18 inlet message;
#X obj 20 26 route soundNum;
#X obj 577 56 s \$0-side;
#X obj 577 21 inlet Side;
#N canvas 569 113 255 258 bangWithMotion 0;
#X obj 39 175 bng 15 250 50 0 empty empty empty 17 7 0 10 -262144 -1
-1;
#N canvas 338 351 344 207 distinctMoveWithGyro 0;
#X obj 68 118 +;
#X obj 68 9 inlet gyroX;
#X obj 152 8 inlet gyroY;
#X obj 68 180 outlet;
#X obj 68 62 *;
#X obj 68 38 t f f;
#X obj 152 60 *;
#X obj 152 36 t f f;
#X floatatom 78 88 5 0 0 0 - - -;
#X floatatom 152 85 5 0 0 0 - - -;
#X floatatom 117 150 5 0 0 0 - - -;
#X obj 68 150 > 0.02;
#X connect 0 0 10 0;
#X connect 0 0 11 0;
#X connect 1 0 5 0;
#X connect 2 0 7 0;
#X connect 4 0 0 0;
#X connect 4 0 8 0;
#X connect 5 0 4 0;
#X connect 5 1 4 1;
#X connect 6 0 0 1;
#X connect 6 0 9 0;
#X connect 7 0 6 0;
#X connect 7 1 6 1;
#X connect 11 0 3 0;
#X restore 39 49 pd distinctMoveWithGyro;
#X obj 39 17 r \$0-gyroX;
#X obj 110 18 r \$0-gyroY;
#X obj 87 151 r \$0-getGesture;
#X obj 39 197 outlet;
#X obj 39 71 tgl 15 0 empty empty empty 17 7 0 10 -262144 -1 -1 0 1
;
#X obj 39 90 sel 1;
#X obj 39 111 bng 15 250 50 0 empty empty empty 17 7 0 10 -262144 -1
-1;
#X obj 39 131 SpigotForBangWithMotion;
#X connect 0 0 5 0;
#X connect 1 0 6 0;
#X connect 2 0 1 0;
#X connect 3 0 1 1;
#X connect 4 0 0 0;
#X connect 6 0 7 0;
#X connect 7 0 8 0;
#X connect 8 0 9 0;
#X connect 9 0 0 0;
#X restore 26 243 pd bangWithMotion;
#X obj 26 289 s \$0-bangWithMotion;
#X obj 26 268 bng 15 250 50 0 empty empty empty 17 7 0 10 -262144 -1
-1;
#X text 26 226 bang with motion;
#N canvas 83 181 1151 162 quaternion4 0;
#X obj 22 35 inlet;
#X obj 22 101 s \$0-quatW;
#X floatatom 22 70 5 0 0 0 - - -;
#X obj 90 35 inlet;
#X floatatom 90 70 5 0 0 0 - - -;
#X obj 158 35 inlet;
#X floatatom 158 70 5 0 0 0 - - -;
#X obj 226 35 inlet;
#X floatatom 226 70 5 0 0 0 - - -;
#X obj 90 101 s \$0-quatX;
#X obj 158 101 s \$0-quatY;
#X obj 226 101 s \$0-quatZ;
#X obj 330 35 inlet;
#X floatatom 330 70 5 0 0 0 - - -;
#X obj 413 35 inlet;
#X floatatom 413 70 5 0 0 0 - - -;
#X obj 487 35 inlet;
#X floatatom 487 70 5 0 0 0 - - -;
#X obj 413 101 s \$0-eulerY;
#X obj 487 101 s \$0-eulerZ;
#X obj 593 35 inlet;
#X floatatom 593 70 5 0 0 0 - - -;
#X obj 656 35 inlet;
#X floatatom 656 70 5 0 0 0 - - -;
#X obj 719 35 inlet;
#X floatatom 719 70 5 0 0 0 - - -;
#X obj 656 101 s \$0-accY;
#X obj 719 101 s \$0-accZ;
#X obj 806 35 inlet;
#X floatatom 806 70 5 0 0 0 - - -;
#X obj 806 101 s \$0-gyroX;
#X obj 875 35 inlet;
#X floatatom 875 70 5 0 0 0 - - -;
#X obj 944 35 inlet;
#X floatatom 944 70 5 0 0 0 - - -;
#X obj 875 101 s \$0-gyroY;
#X obj 944 101 s \$0-gyroZ;
#X obj 1049 35 inlet;
#X floatatom 1049 70 5 0 0 0 - - -;
#X obj 1049 101 s \$0-magZ;
#X obj 330 101 s \$0-eulerXL;
#X obj 593 101 s \$0-accX;
#X obj 577 122 s accXL;
#X obj 644 122 s accYL;
#X obj 1029 128 s magL;
#X obj 710 123 s accZL;
#X obj 793 123 s gyroXL;
#X obj 862 123 s gyroYL;
#X obj 931 123 s gyroZL;
#X obj 318 121 s eulerXL;
#X obj 401 121 s eulerYL;
#X obj 475 121 s eulerZL;
#X connect 0 0 2 0;
#X connect 2 0 1 0;
#X connect 3 0 4 0;
#X connect 4 0 9 0;
#X connect 5 0 6 0;
#X connect 6 0 10 0;
#X connect 7 0 8 0;
#X connect 8 0 11 0;
#X connect 12 0 13 0;
#X connect 13 0 40 0;
#X connect 13 0 49 0;
#X connect 14 0 15 0;
#X connect 15 0 18 0;
#X connect 15 0 50 0;
#X connect 16 0 17 0;
#X connect 17 0 19 0;
#X connect 17 0 51 0;
#X connect 20 0 21 0;
#X connect 21 0 41 0;
#X connect 21 0 42 0;
#X connect 22 0 23 0;
#X connect 23 0 26 0;
#X connect 23 0 43 0;
#X connect 24 0 25 0;
#X connect 25 0 27 0;
#X connect 25 0 45 0;
#X connect 28 0 29 0;
#X connect 29 0 30 0;
#X connect 29 0 46 0;
#X connect 31 0 32 0;
#X connect 32 0 35 0;
#X connect 32 0 47 0;
#X connect 33 0 34 0;
#X connect 34 0 36 0;
#X connect 34 0 48 0;
#X connect 37 0 38 0;
#X connect 38 0 39 0;
#X connect 38 0 44 0;
#X restore 128 123 pd quaternion4 euler3 acc3 gyro3 mag;
#X text 128 137 Send each sensor values;
#N canvas 364 459 899 151 Getgesture 0;
#X obj 16 5 inlet;
#X obj 622 26 inlet;
#X obj 773 26 inlet;
#X obj 16 41 sel STEP KICK;
#X obj 108 105 s \$0-getGestureL;
#X obj 16 105 s getGestureL;
#X obj 703 105 s \$0-TOEL;
#X obj 773 105 s \$0-powerL;
#X obj 622 105 s \$0-HEELL;
#X obj 234 26 inlet;
#X obj 622 64 sel HEEL TOE;
#X obj 234 64 sel CENTER FRONT BACK LEFT RIGHT;
#X obj 234 105 s \$0-CENTERL;
#X obj 314 105 s \$0-FRONTL;
#X obj 391 105 s \$0-BACKL;
#X obj 467 105 s \$0-LEFTL;
#X obj 544 105 s RIGHTL;
#X obj 108 79 s STEPL;
#X obj 786 77 s powerL;
#X obj 158 78 s KICKL;
#X connect 0 0 3 0;
#X connect 1 0 10 0;
#X connect 2 0 7 0;
#X connect 2 0 18 0;
#X connect 3 0 4 0;
#X connect 3 0 5 0;
#X connect 3 0 17 0;
#X connect 3 1 4 0;
#X connect 3 1 5 0;
#X connect 3 1 19 0;
#X connect 9 0 11 0;
#X connect 10 0 8 0;
#X connect 10 1 6 0;
#X connect 11 0 12 0;
#X connect 11 1 13 0;
#X connect 11 2 14 0;
#X connect 11 3 15 0;
#X connect 11 4 16 0;
#X restore 373 160 pd Getgesture Direction Position Power;
#X text 372 177 Send each gesture bang;
#X text 39 178 !!Current Criteria is OrpheLEFT!!;
#X obj 18 67 cnv 20 100 40 empty empty empty 20 12 0 14 -257985 -66577
0;
#X text 22 65 sound output;
#N canvas 287 452 697 402 soundoutputL 1;
#X obj 43 -296 inlet \$0-soundnum;
#X obj 43 -130 s \$0-soundNum;
#X obj 152 -295 loadbang;
#X msg 152 -239 0;
#X obj 152 -267 t b b;
#X obj 180 -232 bng 15 250 50 0 empty empty empty 17 7 0 10 -262144
-1 -1;
#X obj 166 -174 cnv 15 100 60 empty empty empty 20 12 0 14 -142976
-66577 0;
#N canvas 360 23 1182 819 piano1L 1;
#X obj -43 -239 / 180;
#X obj -184 -55 f;
#X obj -43 -263 spigot;
#X obj -184 -337 r \$0-bangWithMotion;
#X obj -184 -198 == \$1;
#X obj -184 -242 spigot;
#X floatatom -184 -23 5 0 0 0 - - -;
#N canvas 232 354 254 337 TriggerLightHSV_pactch 0;
#X obj 82 -55 r \$0-side;
#X floatatom 82 -31 5 0 0 0 - - -;
#X obj 38 -40 f;
#X obj 37 119 s g_TriggerLightHSV;
#X obj 37 15 bng 15 250 50 0 empty empty empty 17 7 0 10 -262144 -1
-1;
#X obj 38 -9 t b f;
#X obj 37 39 f;
#X text 39 97 side \, lightNum \, h \, s \, v;
#X msg 106 41 0;
#X msg 142 39 255;
#X obj 123 -29 random 2;
#X floatatom 123 -8 5 0 0 0 - - -;
#X obj 123 13 sel 0 1;
#X obj 37 77 pack f f 0 0 255;
#X obj 53 -76 convertEulerToLightNum;
#X obj 53 -99 inlet;
#X obj 38 -121 r \$0-HSVBang;
#X connect 0 0 1 0;
#X connect 1 0 6 1;
#X connect 2 0 5 0;
#X connect 4 0 6 0;
#X connect 5 0 4 0;
#X connect 5 1 13 1;
#X connect 6 0 13 0;
#X connect 8 0 13 3;
#X connect 9 0 13 3;
#X connect 10 0 11 0;
#X connect 11 0 12 0;
#X connect 12 0 8 0;
#X connect 12 1 9 0;
#X connect 13 0 3 0;
#X connect 14 0 2 1;
#X connect 15 0 14 0;
#X connect 16 0 2 0;
#X restore -8 -188 pd TriggerLightHSV_pactch;
#X obj 697 -283 inlet id;
#X obj 682 -255 ==;
#X obj 682 -305 r \$0-soundNum;
#X obj 682 -231 tgl 15 0 empty empty empty 17 7 0 10 -262144 -1 -1
1 1;
#X obj -151 -287 tgl 15 0 empty empty empty 17 7 0 10 -262144 -1 -1
1 1;
#X obj -10 -287 tgl 15 0 empty empty empty 17 7 0 10 -262144 -1 -1
1 1;
#X obj -184 -138 bng 15 250 50 0 empty empty empty 17 7 0 10 -262144
-1 -1;
#X obj 655 -55 f;
#X floatatom 655 -23 5 0 0 0 - - -;
#X obj 670 -138 convertEulerTo10Note;
#X obj 655 28 spigot;
#X floatatom 655 54 5 0 0 0 - - -;
#X obj 688 2 tgl 15 0 empty empty empty 17 7 0 10 -262144 -1 -1 0 1
;
#X obj -184 28 spigot;
#X floatatom -184 54 5 0 0 0 - - -;
#X obj -151 2 tgl 15 0 empty empty empty 17 7 0 10 -262144 -1 -1 0
1;
#X obj -62 -55 f;
#X floatatom -62 -23 5 0 0 0 - - -;
#X obj -62 28 spigot;
#X floatatom -62 54 5 0 0 0 - - -;
#X obj -29 2 tgl 15 0 empty empty empty 17 7 0 10 -262144 -1 -1 0 1
;
#X obj 64 -55 f;
#X floatatom 64 -23 5 0 0 0 - - -;
#X obj 64 28 spigot;
#X floatatom 64 54 5 0 0 0 - - -;
#X obj 97 2 tgl 15 0 empty empty empty 17 7 0 10 -262144 -1 -1 0 1
;
#X obj 200 -55 f;
#X floatatom 200 -23 5 0 0 0 - - -;
#X obj 200 28 spigot;
#X floatatom 200 54 5 0 0 0 - - -;
#X obj 233 2 tgl 15 0 empty empty empty 17 7 0 10 -262144 -1 -1 0 1
;
#X floatatom -93 -283 5 0 0 0 - - -;
#X obj 337 -55 f;
#X floatatom 337 -23 5 0 0 0 - - -;
#X obj 337 28 spigot;
#X floatatom 337 53 5 0 0 0 - - -;
#X obj 370 2 tgl 15 0 empty empty empty 17 7 0 10 -262144 -1 -1 0 1
;
#X obj 439 -55 f;
#X floatatom 439 -23 5 0 0 0 - - -;
#X obj 439 28 spigot;
#X floatatom 439 54 5 0 0 0 - - -;
#X obj 472 2 tgl 15 0 empty empty empty 17 7 0 10 -262144 -1 -1 0 1
;
#X obj 529 -56 f;
#X floatatom 529 -23 5 0 0 0 - - -;
#X obj 529 28 spigot;
#X floatatom 529 54 5 0 0 0 - - -;
#X obj 562 2 tgl 15 0 empty empty empty 17 7 0 10 -262144 -1 -1 0 1
;
#X obj -151 -23 r Scene1;
#X obj -29 -23 r Scene2;
#X obj 97 -23 r Scene3;
#X obj 233 -23 r Scene4;
#X obj -43 -337 r \$0-eulerXL;
#X obj 370 -23 r Scene5;
#N canvas 47 38 1331 687 Scene6 0;
#X obj -264 76 inlet;
#X obj -231 147 tgl 15 0 empty empty empty 17 7 0 10 -262144 -1 -1
0 1;
#X obj -264 176 spigot;
#X obj -264 348 spigot;
#X obj -231 315 tgl 15 0 empty empty empty 17 7 0 10 -262144 -1 -1
0 1;
#X obj -58 348 spigot;
#X obj -25 315 tgl 15 0 empty empty empty 17 7 0 10 -262144 -1 -1 0
1;
#X obj 140 348 spigot;
#X obj 173 315 tgl 15 0 empty empty empty 17 7 0 10 -262144 -1 -1 0
1;
#X obj 341 348 spigot;
#X obj 374 315 tgl 15 0 empty empty empty 17 7 0 10 -262144 -1 -1 0
1;
#X obj -153 373 loadbang;
#X floatatom -264 549 5 0 0 0 - - -;
#X obj 53 373 loadbang;
#X obj 251 373 loadbang;
#X obj 452 373 loadbang;
#X floatatom -245 405 5 0 0 0 - - -;
#X obj -264 589 s NoteNUM;
#X floatatom -243 240 5 0 0 0 - - -;
#X floatatom -259 129 5 0 0 0 - - -;
#X obj 534 347 spigot;
#X obj 567 314 tgl 15 0 empty empty empty 17 7 0 10 -262144 -1 -1 0
1;
#X obj 735 347 spigot;
#X obj 768 314 tgl 15 0 empty empty empty 17 7 0 10 -262144 -1 -1 0
1;
#X obj 645 372 loadbang;
#X obj 846 372 loadbang;
#N canvas 355 25 669 685 SwitcherbySelect 0;
#X floatatom 48 578 5 0 0 0 - - -;
#X floatatom 135 578 5 0 0 0 - - -;
#X msg 48 544 1;
#X msg 74 544 0;
#X obj 74 523 bng 15 250 50 0 empty empty empty 17 7 0 10 -262144 -1
-1;
#X obj 135 523 bng 15 250 50 0 empty empty empty 17 7 0 10 -262144
-1 -1;
#X msg 135 544 1;
#X msg 160 544 0;
#X obj 160 523 bng 15 250 50 0 empty empty empty 17 7 0 10 -262144
-1 -1;
#X obj 48 523 bng 15 250 50 0 empty empty empty 17 7 0 10 -262144 -1
-1;
#X floatatom 217 578 5 0 0 0 - - -;
#X obj 217 523 bng 15 250 50 0 empty empty empty 17 7 0 10 -262144
-1 -1;
#X msg 217 544 1;
#X msg 242 544 0;
#X obj 242 523 bng 15 250 50 0 empty empty empty 17 7 0 10 -262144
-1 -1;
#X floatatom 314 578 5 0 0 0 - - -;
#X obj 314 523 bng 15 250 50 0 empty empty empty 17 7 0 10 -262144
-1 -1;
#X msg 314 544 1;
#X msg 339 544 0;
#X obj 339 523 bng 15 250 50 0 empty empty empty 17 7 0 10 -262144
-1 -1;
#X obj 48 649 outlet;
#X obj 135 649 outlet;
#X obj 217 649 outlet;
#X obj 314 649 outlet;
#X floatatom 48 172 5 0 0 0 - - -;
#X floatatom 414 577 5 0 0 0 - - -;
#X obj 414 522 bng 15 250 50 0 empty empty empty 17 7 0 10 -262144
-1 -1;
#X msg 414 543 1;
#X msg 439 543 0;
#X obj 439 522 bng 15 250 50 0 empty empty empty 17 7 0 10 -262144
-1 -1;
#X floatatom 511 577 5 0 0 0 - - -;
#X obj 511 522 bng 15 250 50 0 empty empty empty 17 7 0 10 -262144
-1 -1;
#X msg 511 543 1;
#X msg 536 543 0;
#X obj 536 522 bng 15 250 50 0 empty empty empty 17 7 0 10 -262144
-1 -1;
#X obj 414 648 outlet;
#X obj 511 648 outlet;
#X obj 81 31 inlet;
#X obj 48 198 sel 1 2 3 4 5 6;
#X obj 48 84 spigot;
#X obj 81 59 tgl 15 0 empty empty empty 17 7 0 10 -262144 -1 -1 0 1
;
#X obj 48 10 r getGestureL;
#X obj 48 41 bng 15 250 50 0 empty empty empty 17 7 0 10 -262144 -1
-1;
#N canvas 178 302 450 300 counter10 0;
#X obj 90 -726 bng 15 250 50 0 empty empty empty 17 7 0 10 -262144
-1 -1;
#X msg 90 -704 1;
#X obj 90 -679 +;
#X floatatom 141 -679 5 0 0 0 - - -;
#X msg 141 -704 0;
#X obj 141 -726 bng 15 250 50 0 empty empty empty 17 7 0 10 -262144
-1 -1;
#X obj 90 -755 inlet;
#X obj 141 -756 inlet;
#X obj 141 -639 outlet;
#X obj 185 -677 sel 10;
#X connect 0 0 1 0;
#X connect 1 0 2 0;
#X connect 2 0 3 0;
#X connect 3 0 2 1;
#X connect 3 0 8 0;
#X connect 3 0 9 0;
#X connect 4 0 2 1;
#X connect 5 0 4 0;
#X connect 6 0 0 0;
#X connect 7 0 5 0;
#X connect 9 0 5 0;
#X restore 48 137 pd counter10;
#X obj 48 113 bng 15 250 50 0 empty empty empty 17 7 0 10 -262144 -1
-1;
#X obj 117 79 delay 10000;
#X obj 117 59 bng 15 250 50 0 empty empty empty 17 7 0 10 -262144 -1
-1;
#X obj 117 102 bng 15 250 50 0 empty empty empty 17 7 0 10 -262144
-1 -1;
#X connect 0 0 20 0;
#X connect 1 0 21 0;
#X connect 2 0 0 0;
#X connect 3 0 0 0;
#X connect 4 0 3 0;
#X connect 5 0 6 0;
#X connect 6 0 1 0;
#X connect 7 0 1 0;
#X connect 8 0 7 0;
#X connect 9 0 2 0;
#X connect 10 0 22 0;
#X connect 11 0 12 0;
#X connect 12 0 10 0;
#X connect 13 0 10 0;
#X connect 14 0 13 0;
#X connect 15 0 23 0;
#X connect 16 0 17 0;
#X connect 17 0 15 0;
#X connect 18 0 15 0;
#X connect 19 0 18 0;
#X connect 24 0 38 0;
#X connect 25 0 35 0;
#X connect 26 0 27 0;
#X connect 27 0 25 0;
#X connect 28 0 25 0;
#X connect 29 0 28 0;
#X connect 30 0 36 0;
#X connect 31 0 32 0;
#X connect 32 0 30 0;
#X connect 33 0 30 0;
#X connect 34 0 33 0;
#X connect 37 0 40 0;
#X connect 38 0 9 0;
#X connect 38 0 8 0;
#X connect 38 0 14 0;
#X connect 38 0 19 0;
#X connect 38 0 29 0;
#X connect 38 0 34 0;
#X connect 38 1 5 0;
#X connect 38 1 4 0;
#X connect 38 1 14 0;
#X connect 38 1 19 0;
#X connect 38 1 29 0;
#X connect 38 1 34 0;
#X connect 38 2 11 0;
#X connect 38 2 4 0;
#X connect 38 2 8 0;
#X connect 38 2 19 0;
#X connect 38 2 29 0;
#X connect 38 2 34 0;
#X connect 38 3 16 0;
#X connect 38 3 14 0;
#X connect 38 3 8 0;
#X connect 38 3 4 0;
#X connect 38 3 29 0;
#X connect 38 3 34 0;
#X connect 38 4 4 0;
#X connect 38 4 8 0;
#X connect 38 4 14 0;
#X connect 38 4 19 0;
#X connect 38 4 26 0;
#X connect 38 4 34 0;
#X connect 38 5 4 0;
#X connect 38 5 8 0;
#X connect 38 5 14 0;
#X connect 38 5 19 0;
#X connect 38 5 29 0;
#X connect 38 5 31 0;
#X connect 39 0 44 0;
#X connect 40 0 39 1;
#X connect 41 0 42 0;
#X connect 42 0 39 0;
#X connect 43 0 24 0;
#X connect 43 0 46 0;
#X connect 44 0 43 0;
#X connect 45 0 47 0;
#X connect 46 0 45 0;
#X connect 47 0 43 1;
#X restore 205 213 pd SwitcherbySelect;
#X obj -185 575 bng 15 250 50 0 empty empty empty 17 7 0 10 -262144
-1 -1;
#X msg -153 405 66 70 72 73 75 80 0 0 0 0;
#X msg 53 405 65 68 73 75 77 80 0 0 0 0;
#X msg 251 405 63 68 73 75 77 80 0 0 0 0;
#X msg 452 405 61 68 73 75 77 80 0 0 0 0;
#X msg 645 404 59 68 73 75 77 80 0 0 0 0;
#X msg 846 404 58 68 72 73 75 80 0 0 0 0;
#X obj -231 103 r Scene6;
#X obj 341 434 DetermineNoteNumber;
#X obj -264 434 DetermineNoteNumber;
#X obj 140 434 DetermineNoteNumber;
#X obj -58 434 DetermineNoteNumber;
#X obj 735 433 DetermineNoteNumber;
#X obj 534 433 DetermineNoteNumber;
#X obj -185 609 s \$0-HSVBang;
#X connect 0 0 2 0;
#X connect 1 0 2 1;
#X connect 1 0 26 0;
#X connect 2 0 3 0;
#X connect 2 0 5 0;
#X connect 2 0 7 0;
#X connect 2 0 9 0;
#X connect 2 0 18 0;
#X connect 2 0 20 0;
#X connect 2 0 22 0;
#X connect 3 0 36 0;
#X connect 4 0 3 1;
#X connect 5 0 38 0;
#X connect 6 0 5 1;
#X connect 7 0 37 0;
#X connect 8 0 7 1;
#X connect 9 0 35 0;
#X connect 10 0 9 1;
#X connect 11 0 28 0;
#X connect 12 0 17 0;
#X connect 12 0 27 0;
#X connect 13 0 29 0;
#X connect 14 0 30 0;
#X connect 15 0 31 0;
#X connect 16 0 36 0;
#X connect 19 0 2 0;
#X connect 20 0 40 0;
#X connect 21 0 20 1;
#X connect 22 0 39 0;
#X connect 23 0 22 1;
#X connect 24 0 32 0;
#X connect 25 0 33 0;
#X connect 26 0 4 0;
#X connect 26 1 6 0;
#X connect 26 2 8 0;
#X connect 26 3 10 0;
#X connect 26 4 21 0;
#X connect 26 5 23 0;
#X connect 27 0 41 0;
#X connect 28 0 36 1;
#X connect 29 0 38 1;
#X connect 30 0 37 1;
#X connect 31 0 35 1;
#X connect 32 0 40 1;
#X connect 33 0 39 1;
#X connect 34 0 1 0;
#X connect 35 0 12 0;
#X connect 36 0 12 0;
#X connect 37 0 12 0;
#X connect 38 0 12 0;
#X connect 39 0 12 0;
#X connect 40 0 12 0;
#X restore 439 132 pd Scene6;
#X obj 472 -23 r Scene6;
#X obj 562 -23 r Scene7;
#X obj 688 -23 r Scene8;
#X obj -155 145 loadbang;
#X msg -33 326 69 74 76 81 0 0 0 0 0 0;
#X msg -4 350 69 74 76 81 0 0 0 0 0 0;
#X msg 25 371 69 74 76 81 0 0 0 0 0 0;
#X msg 55 393 69 74 76 81 0 0 0 0 0 0;
#X obj -33 300 loadbang;
#X obj 93 145 loadbang;
#X obj 229 300 loadbang;
#X obj 365 145 loadbang;
#X obj 558 285 loadbang;
#X obj 684 117 loadbang;
#X msg 558 316 56 66 70 77 80 85 87 89 0 0;
#X msg 587 339 56 66 70 77 80 85 87 89 0 0;
#X msg 616 363 56 66 70 77 80 85 87 89 0 0;
#X msg 646 386 56 66 70 77 80 85 87 89 0 0;
#X msg 684 143 66 73 75 77 78 80 85 87 92 94;
#X msg 713 167 68 70 72 75 80 82 84 87 92 94;
#X msg 742 188 65 66 68 75 77 78 80 87 92 94;
#X msg 772 210 66 68 70 73 75 78 80 82 85 87;
#X obj 682 -207 s \$0-Num==ID1;
#X obj -10 -312 r \$0-Num==ID1;
#X obj -151 -312 r \$0-Num==ID1;
#X text -161 -144 comment;
#X obj -184 300 s \$0-HSVBang;
#X obj 64 300 s \$0-HSVBang;
#X obj 337 300 s \$0-HSVBang;
#X obj 529 440 s \$0-HSVBang;
#X obj -62 445 s \$0-HSVBang;
#X obj 200 445 s \$0-HSVBang;
#X obj 655 262 s \$0-HSVBang;
#X msg 93 176 69 71 74 76 79 81 0 0 0 0;
#X msg 122 199 69 71 74 76 79 81 0 0 0 0;
#X msg 151 223 69 71 74 76 79 81 0 0 0 0;
#X msg 181 246 69 71 74 76 79 81 0 0 0 0;
#X floatatom 306 -213 5 0 0 0 - - -;
#X obj 306 -243 / 180;
#X obj 543 -138 convertEulerTo8Note;
#X obj -40 -137 convertEulerTo3Note;
#X obj 351 -138 convertEulerTo6Note;
#X msg 229 326 65 69 72 74 76 79 0 0 0 0;
#X msg 258 350 65 69 72 74 76 79 0 0 0 0;
#X msg 287 371 65 69 72 74 76 79 0 0 0 0;
#X msg 317 393 65 69 72 74 76 79 0 0 0 0;
#X msg 366 176 63 68 70 72 75 79 0 0 0 0;
#X msg 395 199 63 68 70 72 75 79 0 0 0 0;
#X msg 424 223 63 68 70 72 75 79 0 0 0 0;
#X msg 454 246 63 68 70 72 75 79 0 0 0 0;
#X msg -155 176 69 71 76 0 0 0 0 0 0 0;
#X msg -126 199 69 71 76 0 0 0 0 0 0 0;
#X msg -97 223 69 71 76 0 0 0 0 0 0 0;
#X msg -67 246 69 71 76 0 0 0 0 0 0 0;
#X obj 655 238 SwitchScaleByGesture;
#X obj 439 105 IgnoreSameNumber;
#X obj 206 -138 convertEulerTo4Note;
#X obj -184 83 IgnoreSameNumber;
#X obj -62 83 IgnoreSameNumber;
#X obj 64 83 IgnoreSameNumber;
#X obj 337 83 IgnoreSameNumber;
#X obj 529 83 IgnoreSameNumber;
#X obj 655 83 IgnoreSameNumber;
#X obj 200 83 IgnoreSameNumber;
#X obj -184 275 SwitchScaleByGesture;
#X obj 529 415 SwitchScaleByGesture;
#X obj 64 275 SwitchScaleByGesture;
#X obj -62 421 SwitchScaleByGesture;
#X obj 200 421 SwitchScaleByGesture;
#X obj 337 275 SwitchScaleByGesture;
#X connect 0 0 7 0;
#X connect 0 0 102 0;
#X connect 0 0 118 0;
#X connect 1 0 6 0;
#X connect 2 0 0 0;
#X connect 2 0 100 0;
#X connect 3 0 5 0;
#X connect 4 0 14 0;
#X connect 5 0 4 0;
#X connect 6 0 21 0;
#X connect 8 0 9 1;
#X connect 9 0 11 0;
#X connect 10 0 9 0;
#X connect 11 0 84 0;
#X connect 12 0 5 1;
#X connect 13 0 2 1;
#X connect 14 0 24 0;
#X connect 14 0 29 0;
#X connect 14 0 34 0;
#X connect 14 0 40 0;
#X connect 14 0 45 0;
#X connect 14 0 50 0;
#X connect 14 0 15 0;
#X connect 14 0 1 0;
#X connect 15 0 16 0;
#X connect 16 0 18 0;
#X connect 17 0 15 1;
#X connect 18 0 19 0;
#X connect 19 0 124 0;
#X connect 20 0 18 1;
#X connect 21 0 22 0;
#X connect 22 0 119 0;
#X connect 23 0 21 1;
#X connect 24 0 25 0;
#X connect 25 0 26 0;
#X connect 26 0 27 0;
#X connect 27 0 120 0;
#X connect 28 0 26 1;
#X connect 29 0 30 0;
#X connect 30 0 31 0;
#X connect 31 0 32 0;
#X connect 32 0 121 0;
#X connect 33 0 31 1;
#X connect 34 0 35 0;
#X connect 35 0 36 0;
#X connect 36 0 37 0;
#X connect 37 0 125 0;
#X connect 38 0 36 1;
#X connect 40 0 41 0;
#X connect 41 0 42 0;
#X connect 42 0 43 0;
#X connect 43 0 122 0;
#X connect 44 0 42 1;
#X connect 45 0 46 0;
#X connect 46 0 47 0;
#X connect 47 0 48 0;
#X connect 48 0 117 0;
#X connect 49 0 47 1;
#X connect 50 0 51 0;
#X connect 51 0 52 0;
#X connect 52 0 53 0;
#X connect 53 0 123 0;
#X connect 54 0 52 1;
#X connect 55 0 23 0;
#X connect 56 0 28 0;
#X connect 57 0 33 0;
#X connect 58 0 38 0;
#X connect 59 0 2 0;
#X connect 59 0 39 0;
#X connect 60 0 44 0;
#X connect 62 0 49 0;
#X connect 63 0 54 0;
#X connect 64 0 20 0;
#X connect 65 0 112 0;
#X connect 65 0 113 0;
#X connect 65 0 114 0;
#X connect 65 0 115 0;
#X connect 66 0 129 1;
#X connect 67 0 129 2;
#X connect 68 0 129 3;
#X connect 69 0 129 4;
#X connect 70 0 66 0;
#X connect 70 0 67 0;
#X connect 70 0 68 0;
#X connect 70 0 69 0;
#X connect 71 0 95 0;
#X connect 71 0 96 0;
#X connect 71 0 97 0;
#X connect 71 0 98 0;
#X connect 72 0 104 0;
#X connect 72 0 105 0;
#X connect 72 0 106 0;
#X connect 72 0 107 0;
#X connect 73 0 108 0;
#X connect 73 0 109 0;
#X connect 73 0 110 0;
#X connect 73 0 111 0;
#X connect 74 0 76 0;
#X connect 74 0 77 0;
#X connect 74 0 78 0;
#X connect 74 0 79 0;
#X connect 75 0 80 0;
#X connect 75 0 81 0;
#X connect 75 0 82 0;
#X connect 75 0 83 0;
#X connect 76 0 127 1;
#X connect 77 0 127 2;
#X connect 78 0 127 3;
#X connect 79 0 127 4;
#X connect 80 0 116 1;
#X connect 81 0 116 2;
#X connect 82 0 116 3;
#X connect 83 0 116 4;
#X connect 85 0 13 0;
#X connect 86 0 12 0;
#X connect 95 0 128 1;
#X connect 96 0 128 2;
#X connect 97 0 128 3;
#X connect 98 0 128 4;
#X connect 100 0 99 0;
#X connect 100 0 17 0;
#X connect 100 0 101 0;
#X connect 100 0 103 0;
#X connect 101 0 50 1;
#X connect 102 0 1 1;
#X connect 103 0 29 1;
#X connect 103 0 34 1;
#X connect 103 0 40 1;
#X connect 103 0 45 1;
#X connect 104 0 130 1;
#X connect 105 0 130 2;
#X connect 106 0 130 3;
#X connect 107 0 130 4;
#X connect 108 0 131 1;
#X connect 109 0 131 2;
#X connect 110 0 131 3;
#X connect 111 0 131 4;
#X connect 112 0 126 1;
#X connect 113 0 126 2;
#X connect 114 0 126 3;
#X connect 115 0 126 4;
#X connect 116 0 94 0;
#X connect 117 0 61 0;
#X connect 118 0 24 1;
#X connect 119 0 126 0;
#X connect 120 0 129 0;
#X connect 121 0 128 0;
#X connect 122 0 131 0;
#X connect 123 0 127 0;
#X connect 124 0 116 0;
#X connect 125 0 130 0;
#X connect 126 0 88 0;
#X connect 127 0 91 0;
#X connect 128 0 89 0;
#X connect 129 0 92 0;
#X connect 130 0 93 0;
#X connect 131 0 90 0;
#X restore 180 -138 pd piano1L;
#X msg 180 -168 0;
#X connect 0 0 1 0;
#X connect 2 0 4 0;
#X connect 3 0 1 0;
#X connect 4 0 3 0;
#X connect 4 1 5 0;
#X connect 5 0 8 0;
#X connect 8 0 7 0;
#X restore 20 84 pd soundoutputL;
#X obj 657 112 bng 15 250 50 0 empty empty empty 17 7 0 10 -262144
-1 -1;
#X msg 657 159 0;
#X obj 657 134 delay 100;
#N canvas 100 23 382 335 ResetToStart 0;
#X obj -163 19 r \$0-getGestureL;
#X obj -163 100 +;
#X obj -163 46 bng 15 250 50 0 empty empty empty 17 7 0 10 -262144
-1 -1;
#X msg -163 72 1;
#X floatatom -127 101 5 0 0 0 - - -;
#X floatatom -163 133 5 0 0 0 - - -;
#X obj -122 135 bng 15 250 50 0 empty empty empty 17 7 0 10 -262144
-1 -1;
#X obj -122 187 bng 15 250 50 0 empty empty empty 17 7 0 10 -262144
-1 -1;
#X msg -89 101 0;
#X obj -163 209 s StepSUM;
#X obj -83 210 s reset;
#X obj -122 161 delay 8000;
#X connect 0 0 2 0;
#X connect 1 0 4 0;
#X connect 1 0 5 0;
#X connect 1 0 6 0;
#X connect 2 0 3 0;
#X connect 3 0 1 0;
#X connect 4 0 1 1;
#X connect 5 0 9 0;
#X connect 6 0 11 0;
#X connect 7 0 8 0;
#X connect 7 0 10 0;
#X connect 8 0 4 0;
#X connect 11 0 7 0;
#X restore 170 240 pd ResetToStart;
#X text 169 223 Reset To Start in 8 seconds;
#X connect 0 0 20 0;
#X connect 0 1 20 1;
#X connect 0 2 20 2;
#X connect 0 3 20 3;
#X connect 0 4 20 4;
#X connect 0 5 20 5;
#X connect 0 6 20 6;
#X connect 0 7 20 7;
#X connect 0 8 20 8;
#X connect 0 9 20 9;
#X connect 0 10 20 10;
#X connect 0 11 20 11;
#X connect 0 12 20 12;
#X connect 0 13 20 13;
#X connect 1 0 22 0;
#X connect 2 0 22 1;
#X connect 3 0 22 2;
#X connect 4 0 1 0;
#X connect 4 1 2 0;
#X connect 4 2 3 0;
#X connect 4 3 5 0;
#X connect 5 0 22 3;
#X connect 5 0 28 0;
#X connect 10 0 0 0;
#X connect 11 0 4 0;
#X connect 12 0 10 0;
#X connect 12 0 11 0;
#X connect 12 0 13 0;
#X connect 13 0 27 0;
#X connect 15 0 14 0;
#X connect 16 0 18 0;
#X connect 18 0 17 0;
#X connect 28 0 30 0;
#X connect 29 0 5 0;
#X connect 30 0 29 0;
