#N canvas 8 23 715 332 10;
#X obj 122 57 route sensorValues;
#X obj 368 46 route gesture;
#X obj 122 14 inlet message;
#X obj 14 58 route soundNum;
#X obj 540 80 s \$0-side;
#X obj 540 45 inlet Side;
#X obj 122 120 unpack f f f f f f f f f f f f f f f f;
#X symbolatom 368 155 10 0 0 0 - - -;
#X symbolatom 443 155 10 0 0 0 - - -;
#X symbolatom 518 155 10 0 0 0 - - -;
#X obj 368 118 unpack s s s f;
#X floatatom 593 155 5 0 0 0 - - -;
#X text 372 169 kind;
#X text 446 169 direction;
#X text 521 169 position;
#X text 596 169 power;
#N canvas 19 23 1151 162 quaternion4 1;
#X obj 22 35 inlet;
#X obj 22 101 s \$0-quatW;
#X floatatom 22 70 5 0 0 0 - - -;
#X obj 90 35 inlet;
#X floatatom 90 70 5 0 0 0 - - -;
#X obj 158 35 inlet;
#X floatatom 158 70 5 0 0 0 - - -;
#X obj 226 35 inlet;
#X floatatom 226 70 5 0 0 0 - - -;
#X obj 90 101 s \$0-quatX;
#X obj 158 101 s \$0-quatY;
#X obj 226 101 s \$0-quatZ;
#X obj 330 35 inlet;
#X floatatom 330 70 5 0 0 0 - - -;
#X obj 411 35 inlet;
#X floatatom 411 70 5 0 0 0 - - -;
#X obj 485 35 inlet;
#X floatatom 485 70 5 0 0 0 - - -;
#X obj 411 101 s \$0-eulerY;
#X obj 485 101 s \$0-eulerZ;
#X obj 591 35 inlet;
#X floatatom 591 70 5 0 0 0 - - -;
#X obj 591 101 s \$0-accX;
#X obj 654 35 inlet;
#X floatatom 654 70 5 0 0 0 - - -;
#X obj 717 35 inlet;
#X floatatom 717 70 5 0 0 0 - - -;
#X obj 654 101 s \$0-accY;
#X obj 717 101 s \$0-accZ;
#X obj 804 35 inlet;
#X floatatom 804 70 5 0 0 0 - - -;
#X obj 804 101 s \$0-gyroX;
#X obj 873 35 inlet;
#X floatatom 873 70 5 0 0 0 - - -;
#X obj 942 35 inlet;
#X floatatom 942 70 5 0 0 0 - - -;
#X obj 873 101 s \$0-gyroY;
#X obj 942 101 s \$0-gyroZ;
#X obj 1047 35 inlet;
#X floatatom 1047 70 5 0 0 0 - - -;
#X obj 1047 101 s \$0-magZ;
#X obj 330 101 s \$0-eulerXR;
#X obj 579 122 s accXR;
#X obj 642 122 s accYR;
#X obj 704 122 s accZR;
#X obj 317 122 s eulerXR;
#X obj 398 122 s eulerYR;
#X obj 472 122 s eulerZR;
#X obj 932 121 s gyroZR;
#X obj 861 121 s gyroYR;
#X obj 792 121 s gyroXR;
#X connect 0 0 2 0;
#X connect 2 0 1 0;
#X connect 3 0 4 0;
#X connect 4 0 9 0;
#X connect 5 0 6 0;
#X connect 6 0 10 0;
#X connect 7 0 8 0;
#X connect 8 0 11 0;
#X connect 12 0 13 0;
#X connect 13 0 41 0;
#X connect 13 0 45 0;
#X connect 14 0 15 0;
#X connect 15 0 18 0;
#X connect 15 0 46 0;
#X connect 16 0 17 0;
#X connect 17 0 19 0;
#X connect 17 0 47 0;
#X connect 20 0 21 0;
#X connect 21 0 22 0;
#X connect 21 0 42 0;
#X connect 23 0 24 0;
#X connect 24 0 27 0;
#X connect 24 0 43 0;
#X connect 25 0 26 0;
#X connect 26 0 28 0;
#X connect 26 0 44 0;
#X connect 29 0 30 0;
#X connect 30 0 31 0;
#X connect 30 0 50 0;
#X connect 32 0 33 0;
#X connect 33 0 36 0;
#X connect 33 0 49 0;
#X connect 34 0 35 0;
#X connect 35 0 37 0;
#X connect 35 0 48 0;
#X connect 38 0 39 0;
#X connect 39 0 40 0;
#X restore 122 155 pd quaternion4 euler3 acc3 gyro3 mag;
#X text 122 169 Send each sensor values;
#N canvas 514 591 899 151 Getgesture 0;
#X obj 16 28 inlet;
#X obj 622 26 inlet;
#X obj 773 26 inlet;
#X obj 16 64 sel STEP KICK;
#X obj 234 26 inlet;
#X obj 622 64 sel HEEL TOE;
#X obj 234 64 sel CENTER FRONT BACK LEFT RIGHT;
#X obj 16 105 s getGestureR;
#X obj 108 105 s \$0-getGestureR;
#X obj 234 105 s \$0-CENTERR;
#X obj 314 105 s \$0-FRONTR;
#X obj 391 105 s \$0-BACKR;
#X obj 467 105 s \$0-LEFTR;
#X obj 544 105 s RIGHTR;
#X obj 622 105 s \$0-HEELR;
#X obj 703 105 s \$0-TOER;
#X obj 773 105 s \$0-powerR;
#X obj 782 82 s powerR;
#X obj 116 64 s KICKR;
#X obj 117 33 bng 15 250 50 0 empty empty empty 17 7 0 10 -262144 -1
-1;
#X connect 0 0 3 0;
#X connect 1 0 5 0;
#X connect 2 0 16 0;
#X connect 2 0 17 0;
#X connect 3 0 7 0;
#X connect 3 0 8 0;
#X connect 3 1 7 0;
#X connect 3 1 8 0;
#X connect 3 1 18 0;
#X connect 4 0 6 0;
#X connect 5 0 14 0;
#X connect 5 1 15 0;
#X connect 6 0 9 0;
#X connect 6 1 10 0;
#X connect 6 2 11 0;
#X connect 6 3 12 0;
#X connect 6 4 13 0;
#X connect 19 0 18 0;
#X restore 368 192 pd Getgesture Direction Position Power;
#X text 367 209 Send each gesture bang;
#N canvas 670 483 278 264 bangWithMotion 0;
#X obj 39 72 tgl 15 0 empty empty empty 17 7 0 10 -262144 -1 -1 0 1
;
#X obj 39 177 bng 15 250 50 0 empty empty empty 17 7 0 10 -262144 -1
-1;
#N canvas 740 23 344 207 distinctMoveWithGyro 0;
#X obj 68 118 +;
#X obj 68 150 > 0.02;
#X obj 68 9 inlet gyroX;
#X obj 152 8 inlet gyroY;
#X obj 68 180 outlet;
#X obj 68 62 *;
#X obj 68 38 t f f;
#X obj 152 60 *;
#X obj 152 36 t f f;
#X connect 0 0 1 0;
#X connect 1 0 4 0;
#X connect 2 0 6 0;
#X connect 3 0 8 0;
#X connect 5 0 0 0;
#X connect 6 0 5 0;
#X connect 6 1 5 1;
#X connect 7 0 0 1;
#X connect 8 0 7 0;
#X connect 8 1 7 1;
#X restore 39 49 pd distinctMoveWithGyro;
#X obj 39 17 r \$0-gyroX;
#X obj 110 18 r \$0-gyroY;
#X obj 87 154 r \$0-getGesture;
#X obj 39 196 outlet;
#X obj 39 93 sel 1;
#X obj 39 115 bng 15 250 50 0 empty empty empty 17 7 0 10 -262144 -1
-1;
#X obj 39 134 SpigotForBangWithMotion;
#X connect 0 0 7 0;
#X connect 1 0 6 0;
#X connect 2 0 0 0;
#X connect 3 0 2 0;
#X connect 4 0 2 1;
#X connect 5 0 1 0;
#X connect 7 0 8 0;
#X connect 8 0 9 0;
#X connect 9 0 1 0;
#X restore 16 242 pd bangWithMotion;
#X obj 16 288 s \$0-bangWithMotion;
#X obj 16 267 bng 15 250 50 0 empty empty empty 17 7 0 10 -262144 -1
-1;
#X text 16 225 bang with motion;
#X obj 10 97 cnv 20 100 40 empty empty empty 20 12 0 14 -257985 -66577
0;
#X text 20 96 sound output;
#N canvas 432 23 536 347 soundoutputR 0;
#X obj 25 -287 inlet \$0-soundnum;
#X obj 25 -126 s \$0-soundNum;
#X obj 134 -286 loadbang;
#X msg 134 -177 0;
#X obj 134 -258 t b b;
#X obj 161 -118 bng 15 250 50 0 empty empty empty 17 7 0 10 -262144
-1 -1;
#X msg 230 -180 0;
#X msg 258 -180 1;
#X obj 230 -259 r scene0;
#X obj 258 -240 r scene1;
#X obj 138 -63 cnv 15 100 60 empty empty empty 20 12 0 14 -142976 -66577
0;
#X msg 161 -58 0;
#N canvas 199 23 1200 855 piano1R 0;
#X obj -90 -287 / 180;
#X obj -231 -65 f;
#X obj -90 -311 spigot;
#X obj -231 -385 r \$0-bangWithMotion;
#X obj -231 -287 == \$1;
#X obj -231 -311 spigot;
#X floatatom -231 -38 5 0 0 0 - - -;
#N canvas 19 23 254 337 TriggerLightHSV_pactch 0;
#X obj 82 -55 r \$0-side;
#X floatatom 82 -31 5 0 0 0 - - -;
#X obj 38 -40 f;
#X obj 37 119 s g_TriggerLightHSV;
#X obj 37 15 bng 15 250 50 0 empty empty empty 17 7 0 10 -262144 -1
-1;
#X obj 38 -9 t b f;
#X obj 37 39 f;
#X text 39 97 side \, lightNum \, h \, s \, v;
#X msg 106 41 0;
#X msg 142 39 255;
#X obj 123 -29 random 2;
#X floatatom 123 -8 5 0 0 0 - - -;
#X obj 123 13 sel 0 1;
#X obj 37 77 pack f f 0 0 255;
#X obj 53 -76 convertEulerToLightNum;
#X obj 53 -99 inlet;
#X obj 38 -121 r \$0-HSVBang;
#X connect 0 0 1 0;
#X connect 1 0 6 1;
#X connect 2 0 5 0;
#X connect 4 0 6 0;
#X connect 5 0 4 0;
#X connect 5 1 13 1;
#X connect 6 0 13 0;
#X connect 8 0 13 3;
#X connect 9 0 13 3;
#X connect 10 0 11 0;
#X connect 11 0 12 0;
#X connect 12 0 8 0;
#X connect 12 1 9 0;
#X connect 13 0 3 0;
#X connect 14 0 2 1;
#X connect 15 0 14 0;
#X connect 16 0 2 0;
#X restore -77 -232 pd TriggerLightHSV_pactch;
#X obj 55 -363 inlet id;
#X obj 40 -335 ==;
#X obj 40 -385 r \$0-soundNum;
#X obj 40 -311 tgl 15 0 empty empty empty 17 7 0 10 -262144 -1 -1 1
1;
#X obj -198 -335 tgl 15 0 empty empty empty 17 7 0 10 -262144 -1 -1
1 1;
#X obj -57 -335 tgl 15 0 empty empty empty 17 7 0 10 -262144 -1 -1
1 1;
#X obj -231 -182 bng 15 250 50 0 empty empty empty 17 7 0 10 -262144
-1 -1;
#X obj -231 35 spigot;
#X floatatom -231 60 5 0 0 0 - - -;
#X obj -198 12 tgl 15 0 empty empty empty 17 7 0 10 -262144 -1 -1 1
1;
#X obj -109 -65 f;
#X floatatom -109 -38 5 0 0 0 - - -;
#X obj -109 35 spigot;
#X floatatom -109 60 5 0 0 0 - - -;
#X obj -76 12 tgl 15 0 empty empty empty 17 7 0 10 -262144 -1 -1 0
1;
#X obj 17 -65 f;
#X floatatom 17 -38 5 0 0 0 - - -;
#X obj 17 35 spigot;
#X floatatom 17 60 5 0 0 0 - - -;
#X obj 50 12 tgl 15 0 empty empty empty 17 7 0 10 -262144 -1 -1 0 1
;
#X obj 153 -65 f;
#X floatatom 153 -38 5 0 0 0 - - -;
#X obj 153 35 spigot;
#X floatatom 153 60 5 0 0 0 - - -;
#X obj 186 12 tgl 15 0 empty empty empty 17 7 0 10 -262144 -1 -1 0
1;
#X floatatom -140 -331 5 0 0 0 - - -;
#X obj 264 -65 f;
#X floatatom 264 -38 5 0 0 0 - - -;
#X obj 264 35 spigot;
#X floatatom 264 60 5 0 0 0 - - -;
#X obj 297 12 tgl 15 0 empty empty empty 17 7 0 10 -262144 -1 -1 0
1;
#X obj 383 -65 f;
#X floatatom 383 -38 5 0 0 0 - - -;
#X obj 383 35 spigot;
#X floatatom 383 60 5 0 0 0 - - -;
#X obj 416 12 tgl 15 0 empty empty empty 17 7 0 10 -262144 -1 -1 0
1;
#X obj 495 -74 f;
#X floatatom 495 -38 5 0 0 0 - - -;
#X obj 495 35 spigot;
#X floatatom 495 60 5 0 0 0 - - -;
#X obj 528 12 tgl 15 0 empty empty empty 17 7 0 10 -262144 -1 -1 0
1;
#X obj 616 -65 f;
#X floatatom 616 -38 5 0 0 0 - - -;
#X obj 616 35 spigot;
#X floatatom 616 60 5 0 0 0 - - -;
#X obj 649 12 tgl 15 0 empty empty empty 17 7 0 10 -262144 -1 -1 0
1;
#X obj -90 -385 r \$0-eulerXR;
#X obj -198 -13 r Scene1;
#X obj -76 -13 r Scene2;
#X obj 50 -13 r Scene3;
#X obj 186 -13 r Scene4;
#X obj 297 -13 r Scene5;
#X obj 416 -13 r Scene6;
#X obj 528 -13 r Scene7;
#X obj 649 -13 r Scene8;
#N canvas 250 132 1331 687 Scene6 0;
#X obj -264 76 inlet;
#X obj -231 147 tgl 15 0 empty empty empty 17 7 0 10 -262144 -1 -1
0 1;
#X obj -264 176 spigot;
#N canvas 581 550 405 221 recieve4stepSwitcher 0;
#X obj 28 15 r \$0-4step1L;
#X obj 117 15 r \$0-4step2L;
#X obj 205 15 r \$0-4step3L;
#X obj 291 15 r \$0-4step4L;
#X obj 28 130 outlet;
#X obj 117 130 outlet;
#X obj 205 130 outlet;
#X obj 291 130 outlet;
#X msg 28 84 0;
#X msg 117 84 0;
#X msg 205 84 0;
#X connect 3 0 7 0;
#X connect 8 0 4 0;
#X connect 9 0 5 0;
#X connect 10 0 6 0;
#X restore -265 11 pd recieve4stepSwitcher;
#N canvas 481 115 693 303 6DetectDivider 0;
#X obj 200 33 r \$0-WALK;
#X obj 262 33 r \$0-WALK2;
#X obj 329 33 r \$0-WALK3;
#X obj 395 33 r \$0-WALK4;
#X obj 461 33 r \$0-RUN;
#X obj 138 33 r \$0-SLOW;
#X msg 138 58 1;
#X msg 200 58 2;
#X msg 262 58 3;
#X msg 329 58 4;
#X msg 395 58 5;
#X msg 461 58 6;
#X obj 329 177 sel 1 2 3 4 5 6;
#X floatatom 329 123 5 0 0 0 - - -;
#X obj 329 151 spigot;
#X obj 383 136 tgl 15 0 empty empty empty 17 7 0 10 -262144 -1 -1 0
1;
#N canvas 298 289 643 293 selctStatus 0;
#X obj 36 76 inlet;
#X obj 133 76 inlet;
#X obj 220 76 inlet;
#X obj 317 76 inlet;
#X obj 420 76 inlet;
#X obj 517 76 inlet;
#X msg 36 193 1;
#X msg 64 193 0;
#X msg 133 193 1;
#X msg 161 193 0;
#X msg 220 193 1;
#X msg 248 193 0;
#X msg 317 193 1;
#X msg 345 193 0;
#X msg 420 193 1;
#X msg 448 193 0;
#X msg 517 193 1;
#X msg 545 193 0;
#X obj 36 233 outlet;
#X obj 133 233 outlet;
#X obj 220 233 outlet;
#X obj 317 233 outlet;
#X obj 420 233 outlet;
#X obj 517 233 outlet;
#X connect 0 0 6 0;
#X connect 0 0 9 0;
#X connect 0 0 11 0;
#X connect 0 0 13 0;
#X connect 0 0 15 0;
#X connect 0 0 17 0;
#X connect 1 0 7 0;
#X connect 1 0 8 0;
#X connect 1 0 11 0;
#X connect 1 0 13 0;
#X connect 1 0 15 0;
#X connect 1 0 17 0;
#X connect 2 0 10 0;
#X connect 2 0 7 0;
#X connect 2 0 9 0;
#X connect 2 0 13 0;
#X connect 2 0 15 0;
#X connect 2 0 17 0;
#X connect 3 0 12 0;
#X connect 3 0 7 0;
#X connect 3 0 9 0;
#X connect 3 0 11 0;
#X connect 3 0 15 0;
#X connect 3 0 17 0;
#X connect 4 0 14 0;
#X connect 4 0 17 0;
#X connect 4 0 13 0;
#X connect 4 0 11 0;
#X connect 4 0 9 0;
#X connect 4 0 7 0;
#X connect 5 0 16 0;
#X connect 5 0 15 0;
#X connect 5 0 13 0;
#X connect 5 0 11 0;
#X connect 5 0 9 0;
#X connect 5 0 7 0;
#X connect 6 0 18 0;
#X connect 7 0 18 0;
#X connect 8 0 19 0;
#X connect 9 0 19 0;
#X connect 10 0 20 0;
#X connect 11 0 20 0;
#X connect 12 0 21 0;
#X connect 13 0 21 0;
#X connect 14 0 22 0;
#X connect 15 0 22 0;
#X connect 16 0 23 0;
#X connect 17 0 23 0;
#X restore 329 207 pd selctStatus;
#N canvas 502 349 405 221 recieve4stepSwitcher 0;
#X obj 28 37 r \$0-4step1L;
#X obj 117 37 r \$0-4step2L;
#X obj 205 37 r \$0-4step3L;
#X obj 291 37 r \$0-4step4L;
#X obj 28 130 outlet;
#X obj 117 130 outlet;
#X obj 205 130 outlet;
#X obj 291 130 outlet;
#X msg 28 84 0;
#X msg 117 84 0;
#X msg 205 84 0;
#X msg 291 84 1;
#X connect 0 0 8 0;
#X connect 1 0 9 0;
#X connect 2 0 10 0;
#X connect 3 0 11 0;
#X connect 8 0 4 0;
#X connect 9 0 5 0;
#X connect 10 0 6 0;
#X connect 11 0 7 0;
#X restore 383 109 pd recieve4stepSwitcher;
#X obj 247 255 outlet;
#X obj 309 255 outlet;
#X obj 361 255 outlet;
#X obj 423 255 outlet;
#X obj 479 255 outlet;
#X obj 541 255 outlet;
#X connect 0 0 7 0;
#X connect 1 0 8 0;
#X connect 2 0 9 0;
#X connect 3 0 10 0;
#X connect 4 0 11 0;
#X connect 5 0 6 0;
#X connect 6 0 13 0;
#X connect 7 0 13 0;
#X connect 8 0 13 0;
#X connect 9 0 13 0;
#X connect 10 0 13 0;
#X connect 11 0 13 0;
#X connect 12 0 16 0;
#X connect 12 1 16 1;
#X connect 12 2 16 2;
#X connect 12 3 16 3;
#X connect 12 4 16 4;
#X connect 12 5 16 5;
#X connect 13 0 14 0;
#X connect 14 0 12 0;
#X connect 15 0 14 1;
#X connect 16 0 18 0;
#X connect 16 1 19 0;
#X connect 16 2 20 0;
#X connect 16 3 21 0;
#X connect 16 4 22 0;
#X connect 16 5 23 0;
#X connect 17 0 15 0;
#X connect 17 1 15 0;
#X connect 17 2 15 0;
#X connect 17 3 15 0;
#X restore -265 34 pd 6DetectDivider;
#X obj -264 348 spigot;
#X obj -231 315 tgl 15 0 empty empty empty 17 7 0 10 -262144 -1 -1
0 1;
#X obj -58 348 spigot;
#X obj -25 315 tgl 15 0 empty empty empty 17 7 0 10 -262144 -1 -1 0
1;
#X obj 140 348 spigot;
#X obj 173 315 tgl 15 0 empty empty empty 17 7 0 10 -262144 -1 -1 0
1;
#X obj 341 348 spigot;
#X obj 374 315 tgl 15 0 empty empty empty 17 7 0 10 -262144 -1 -1 0
1;
#X obj -153 373 loadbang;
#X floatatom -264 549 5 0 0 0 - - -;
#X obj 53 373 loadbang;
#X obj 251 373 loadbang;
#X obj 452 373 loadbang;
#X floatatom -245 405 5 0 0 0 - - -;
#X obj -264 589 s NoteNUM;
#X floatatom -243 240 5 0 0 0 - - -;
#X floatatom -259 129 5 0 0 0 - - -;
#X obj 534 347 spigot;
#X obj 567 314 tgl 15 0 empty empty empty 17 7 0 10 -262144 -1 -1 0
1;
#X obj 735 347 spigot;
#X obj 768 314 tgl 15 0 empty empty empty 17 7 0 10 -262144 -1 -1 1
1;
#X obj 645 372 loadbang;
#X obj 846 372 loadbang;
#N canvas 355 25 669 685 SwitcherbySelect 0;
#X floatatom 48 578 5 0 0 0 - - -;
#X floatatom 135 578 5 0 0 0 - - -;
#X msg 48 544 1;
#X msg 74 544 0;
#X obj 74 523 bng 15 250 50 0 empty empty empty 17 7 0 10 -262144 -1
-1;
#X obj 135 523 bng 15 250 50 0 empty empty empty 17 7 0 10 -262144
-1 -1;
#X msg 135 544 1;
#X msg 160 544 0;
#X obj 160 523 bng 15 250 50 0 empty empty empty 17 7 0 10 -262144
-1 -1;
#X obj 48 523 bng 15 250 50 0 empty empty empty 17 7 0 10 -262144 -1
-1;
#X floatatom 217 578 5 0 0 0 - - -;
#X obj 217 523 bng 15 250 50 0 empty empty empty 17 7 0 10 -262144
-1 -1;
#X msg 217 544 1;
#X msg 242 544 0;
#X obj 242 523 bng 15 250 50 0 empty empty empty 17 7 0 10 -262144
-1 -1;
#X floatatom 314 578 5 0 0 0 - - -;
#X obj 314 523 bng 15 250 50 0 empty empty empty 17 7 0 10 -262144
-1 -1;
#X msg 314 544 1;
#X msg 339 544 0;
#X obj 339 523 bng 15 250 50 0 empty empty empty 17 7 0 10 -262144
-1 -1;
#X obj 48 649 outlet;
#X obj 135 649 outlet;
#X obj 217 649 outlet;
#X obj 314 649 outlet;
#X floatatom 48 172 5 0 0 0 - - -;
#X floatatom 414 577 5 0 0 0 - - -;
#X obj 414 522 bng 15 250 50 0 empty empty empty 17 7 0 10 -262144
-1 -1;
#X msg 414 543 1;
#X msg 439 543 0;
#X obj 439 522 bng 15 250 50 0 empty empty empty 17 7 0 10 -262144
-1 -1;
#X floatatom 511 577 5 0 0 0 - - -;
#X obj 511 522 bng 15 250 50 0 empty empty empty 17 7 0 10 -262144
-1 -1;
#X msg 511 543 1;
#X msg 536 543 0;
#X obj 536 522 bng 15 250 50 0 empty empty empty 17 7 0 10 -262144
-1 -1;
#X obj 414 648 outlet;
#X obj 511 648 outlet;
#X obj 81 31 inlet;
#X obj 48 198 sel 1 2 3 4 5 6;
#X obj 48 84 spigot;
#X obj 81 59 tgl 15 0 empty empty empty 17 7 0 10 -262144 -1 -1 0 1
;
#X obj 48 10 r getGestureL;
#X obj 48 41 bng 15 250 50 0 empty empty empty 17 7 0 10 -262144 -1
-1;
#N canvas 178 302 450 300 counter10 0;
#X obj 90 -726 bng 15 250 50 0 empty empty empty 17 7 0 10 -262144
-1 -1;
#X msg 90 -704 1;
#X obj 90 -679 +;
#X floatatom 141 -679 5 0 0 0 - - -;
#X msg 141 -704 0;
#X obj 141 -726 bng 15 250 50 0 empty empty empty 17 7 0 10 -262144
-1 -1;
#X obj 90 -755 inlet;
#X obj 141 -756 inlet;
#X obj 141 -639 outlet;
#X obj 185 -677 sel 10;
#X connect 0 0 1 0;
#X connect 1 0 2 0;
#X connect 2 0 3 0;
#X connect 3 0 2 1;
#X connect 3 0 8 0;
#X connect 3 0 9 0;
#X connect 4 0 2 1;
#X connect 5 0 4 0;
#X connect 6 0 0 0;
#X connect 7 0 5 0;
#X connect 9 0 5 0;
#X restore 48 137 pd counter10;
#X obj 48 113 bng 15 250 50 0 empty empty empty 17 7 0 10 -262144 -1
-1;
#X obj 117 79 delay 10000;
#X obj 117 59 bng 15 250 50 0 empty empty empty 17 7 0 10 -262144 -1
-1;
#X obj 117 102 bng 15 250 50 0 empty empty empty 17 7 0 10 -262144
-1 -1;
#X connect 0 0 20 0;
#X connect 1 0 21 0;
#X connect 2 0 0 0;
#X connect 3 0 0 0;
#X connect 4 0 3 0;
#X connect 5 0 6 0;
#X connect 6 0 1 0;
#X connect 7 0 1 0;
#X connect 8 0 7 0;
#X connect 9 0 2 0;
#X connect 10 0 22 0;
#X connect 11 0 12 0;
#X connect 12 0 10 0;
#X connect 13 0 10 0;
#X connect 14 0 13 0;
#X connect 15 0 23 0;
#X connect 16 0 17 0;
#X connect 17 0 15 0;
#X connect 18 0 15 0;
#X connect 19 0 18 0;
#X connect 24 0 38 0;
#X connect 25 0 35 0;
#X connect 26 0 27 0;
#X connect 27 0 25 0;
#X connect 28 0 25 0;
#X connect 29 0 28 0;
#X connect 30 0 36 0;
#X connect 31 0 32 0;
#X connect 32 0 30 0;
#X connect 33 0 30 0;
#X connect 34 0 33 0;
#X connect 37 0 40 0;
#X connect 38 0 9 0;
#X connect 38 0 8 0;
#X connect 38 0 14 0;
#X connect 38 0 19 0;
#X connect 38 0 29 0;
#X connect 38 0 34 0;
#X connect 38 1 5 0;
#X connect 38 1 4 0;
#X connect 38 1 14 0;
#X connect 38 1 19 0;
#X connect 38 1 29 0;
#X connect 38 1 34 0;
#X connect 38 2 11 0;
#X connect 38 2 4 0;
#X connect 38 2 8 0;
#X connect 38 2 19 0;
#X connect 38 2 29 0;
#X connect 38 2 34 0;
#X connect 38 3 16 0;
#X connect 38 3 14 0;
#X connect 38 3 8 0;
#X connect 38 3 4 0;
#X connect 38 3 29 0;
#X connect 38 3 34 0;
#X connect 38 4 4 0;
#X connect 38 4 8 0;
#X connect 38 4 14 0;
#X connect 38 4 19 0;
#X connect 38 4 26 0;
#X connect 38 4 34 0;
#X connect 38 5 4 0;
#X connect 38 5 8 0;
#X connect 38 5 14 0;
#X connect 38 5 19 0;
#X connect 38 5 29 0;
#X connect 38 5 31 0;
#X connect 39 0 44 0;
#X connect 40 0 39 1;
#X connect 41 0 42 0;
#X connect 42 0 39 0;
#X connect 43 0 24 0;
#X connect 43 0 46 0;
#X connect 44 0 43 0;
#X connect 45 0 47 0;
#X connect 46 0 45 0;
#X connect 47 0 43 1;
#X restore 205 213 pd SwitcherbySelect;
#X obj -124 597 bng 15 250 50 0 empty empty empty 17 7 0 10 -262144
-1 -1;
#X msg -153 405 66 70 72 73 75 80 0 0 0 0;
#X msg 53 405 65 68 73 75 77 80 0 0 0 0;
#X msg 251 405 63 68 73 75 77 80 0 0 0 0;
#X msg 452 405 61 68 73 75 77 80 0 0 0 0;
#X msg 645 404 59 68 73 75 77 80 0 0 0 0;
#X msg 846 404 58 68 72 73 75 80 0 0 0 0;
#X obj -231 103 r Scene6;
#X obj 341 434 DetermineNoteNumber;
#X obj -264 434 DetermineNoteNumber;
#X obj 140 434 DetermineNoteNumber;
#X obj -58 434 DetermineNoteNumber;
#X obj 735 433 DetermineNoteNumber;
#X obj 534 433 DetermineNoteNumber;
#X obj -124 631 s \$0-HSVBang;
#X connect 0 0 2 0;
#X connect 1 0 2 1;
#X connect 1 0 28 0;
#X connect 2 0 5 0;
#X connect 2 0 7 0;
#X connect 2 0 9 0;
#X connect 2 0 11 0;
#X connect 2 0 20 0;
#X connect 2 0 22 0;
#X connect 2 0 24 0;
#X connect 5 0 38 0;
#X connect 6 0 5 1;
#X connect 7 0 40 0;
#X connect 8 0 7 1;
#X connect 9 0 39 0;
#X connect 10 0 9 1;
#X connect 11 0 37 0;
#X connect 12 0 11 1;
#X connect 13 0 30 0;
#X connect 14 0 19 0;
#X connect 14 0 29 0;
#X connect 15 0 31 0;
#X connect 16 0 32 0;
#X connect 17 0 33 0;
#X connect 18 0 38 0;
#X connect 21 0 2 0;
#X connect 22 0 42 0;
#X connect 23 0 22 1;
#X connect 24 0 41 0;
#X connect 25 0 24 1;
#X connect 26 0 34 0;
#X connect 27 0 35 0;
#X connect 28 0 6 0;
#X connect 28 1 8 0;
#X connect 28 2 10 0;
#X connect 28 3 12 0;
#X connect 28 4 23 0;
#X connect 28 5 25 0;
#X connect 29 0 43 0;
#X connect 30 0 38 1;
#X connect 31 0 40 1;
#X connect 32 0 39 1;
#X connect 33 0 37 1;
#X connect 34 0 42 1;
#X connect 35 0 41 1;
#X connect 36 0 1 0;
#X connect 37 0 14 0;
#X connect 38 0 14 0;
#X connect 39 0 14 0;
#X connect 40 0 14 0;
#X connect 41 0 14 0;
#X connect 42 0 14 0;
#X restore 383 107 pd Scene6;
#X obj -202 142 loadbang;
#X obj -80 257 loadbang;
#X obj 45 142 loadbang;
#X obj 182 257 loadbang;
#X obj 292 142 loadbang;
#X obj 524 142 loadbang;
#X obj 645 257 loadbang;
#X msg 524 165 56 66 70 77 80 85 87 89 0 0;
#X msg 553 187 56 66 70 77 80 85 87 89 0 0;
#X msg 582 209 56 66 70 77 80 85 87 89 0 0;
#X msg 612 232 56 66 70 77 80 85 87 89 0 0;
#X msg 645 311 66 73 75 77 78 80 85 87 92 94;
#X msg 674 331 68 70 72 75 80 82 84 87 92 94;
#X msg 703 352 65 66 68 75 77 78 80 87 92 94;
#X msg 733 373 66 68 70 73 75 78 80 82 85 87;
#X msg -202 165 74 76 81 0 0 0 0 0 0 0;
#X msg -173 187 74 76 81 0 0 0 0 0 0 0;
#X msg -144 209 74 76 81 0 0 0 0 0 0 0;
#X msg -114 232 74 76 81 0 0 0 0 0 0 0;
#X obj -57 -360 r \$0-Num==ID1;
#X obj 40 -287 s \$0-Num==ID1;
#X obj -198 -360 r \$0-Num==ID1;
#X obj -231 283 s \$0-HSVBang;
#X obj 17 283 s \$0-HSVBang;
#X obj 264 283 s \$0-HSVBang;
#X obj 495 283 s \$0-HSVBang;
#X obj -109 427 s \$0-HSVBang;
#X obj 153 427 s \$0-HSVBang;
#X obj 616 427 s \$0-HSVBang;
#X msg -80 311 71 76 79 81 0 0 0 0 0 0;
#X msg -51 331 71 76 79 81 0 0 0 0 0 0;
#X msg -22 352 71 76 79 81 0 0 0 0 0 0;
#X msg 8 373 71 76 79 81 0 0 0 0 0 0;
#X msg 46 165 69 71 74 76 79 81 0 0 0 0;
#X msg 75 187 69 71 74 76 79 81 0 0 0 0;
#X msg 104 209 69 71 74 76 79 81 0 0 0 0;
#X msg 134 232 69 71 74 76 79 81 0 0 0 0;
#X obj 650 -154 convertEulerTo10Note;
#X obj 508 -153 convertEulerTo8Note;
#X obj 37 -151 convertEulerTo4Note;
#X obj -90 -151 convertEulerTo3Note;
#X obj 168 -151 convertEulerTo6Note;
#X msg 182 311 65 69 72 74 76 79 0 0 0 0;
#X msg 211 331 65 69 72 74 76 79 0 0 0 0;
#X msg 240 352 65 69 72 74 76 79 0 0 0 0;
#X msg 270 373 65 69 72 74 76 79 0 0 0 0;
#X msg 293 165 63 68 70 72 75 79 0 0 0 0;
#X msg 322 187 63 68 70 72 75 79 0 0 0 0;
#X msg 351 209 63 68 70 72 75 79 0 0 0 0;
#X msg 381 232 63 68 70 72 75 79 0 0 0 0;
#X obj 264 257 SwitchScaleByGesture;
#X obj -231 257 SwitchScaleByGesture;
#X obj -109 401 SwitchScaleByGesture;
#X obj 17 257 SwitchScaleByGesture;
#X obj 153 401 SwitchScaleByGesture;
#X obj 495 257 SwitchScaleByGesture;
#X obj 616 401 SwitchScaleByGesture;
#X obj -231 85 IgnoreSameNumber;
#X obj -109 85 IgnoreSameNumber;
#X obj 17 85 IgnoreSameNumber;
#X obj 153 85 IgnoreSameNumber;
#X obj 264 85 IgnoreSameNumber;
#X obj 383 85 IgnoreSameNumber;
#X obj 495 85 IgnoreSameNumber;
#X obj 616 85 IgnoreSameNumber;
#X connect 0 0 7 0;
#X connect 0 0 101 0;
#X connect 0 0 102 0;
#X connect 0 0 103 0;
#X connect 0 0 104 0;
#X connect 0 0 105 0;
#X connect 1 0 6 0;
#X connect 2 0 0 0;
#X connect 3 0 5 0;
#X connect 4 0 14 0;
#X connect 5 0 4 0;
#X connect 6 0 15 0;
#X connect 8 0 9 1;
#X connect 9 0 11 0;
#X connect 10 0 9 0;
#X connect 11 0 84 0;
#X connect 12 0 5 1;
#X connect 13 0 2 1;
#X connect 14 0 18 0;
#X connect 14 0 23 0;
#X connect 14 0 28 0;
#X connect 14 0 34 0;
#X connect 14 0 39 0;
#X connect 14 0 44 0;
#X connect 14 0 49 0;
#X connect 14 0 1 0;
#X connect 15 0 16 0;
#X connect 16 0 121 0;
#X connect 17 0 15 1;
#X connect 18 0 19 0;
#X connect 19 0 20 0;
#X connect 20 0 21 0;
#X connect 21 0 122 0;
#X connect 22 0 20 1;
#X connect 23 0 24 0;
#X connect 24 0 25 0;
#X connect 25 0 26 0;
#X connect 26 0 123 0;
#X connect 27 0 25 1;
#X connect 28 0 29 0;
#X connect 29 0 30 0;
#X connect 30 0 31 0;
#X connect 31 0 124 0;
#X connect 32 0 30 1;
#X connect 34 0 35 0;
#X connect 35 0 36 0;
#X connect 36 0 37 0;
#X connect 37 0 125 0;
#X connect 38 0 36 1;
#X connect 39 0 40 0;
#X connect 40 0 41 0;
#X connect 41 0 42 0;
#X connect 42 0 126 0;
#X connect 43 0 41 1;
#X connect 44 0 45 0;
#X connect 45 0 46 0;
#X connect 46 0 47 0;
#X connect 47 0 127 0;
#X connect 48 0 46 1;
#X connect 49 0 50 0;
#X connect 50 0 51 0;
#X connect 51 0 52 0;
#X connect 52 0 128 0;
#X connect 53 0 51 1;
#X connect 54 0 2 0;
#X connect 54 0 33 0;
#X connect 55 0 17 0;
#X connect 56 0 22 0;
#X connect 57 0 27 0;
#X connect 58 0 32 0;
#X connect 59 0 38 0;
#X connect 60 0 43 0;
#X connect 61 0 48 0;
#X connect 62 0 53 0;
#X connect 64 0 79 0;
#X connect 64 0 80 0;
#X connect 64 0 81 0;
#X connect 64 0 82 0;
#X connect 65 0 93 0;
#X connect 65 0 94 0;
#X connect 65 0 95 0;
#X connect 65 0 96 0;
#X connect 66 0 97 0;
#X connect 66 0 98 0;
#X connect 66 0 99 0;
#X connect 66 0 100 0;
#X connect 67 0 106 0;
#X connect 67 0 107 0;
#X connect 67 0 108 0;
#X connect 67 0 109 0;
#X connect 68 0 110 0;
#X connect 68 0 111 0;
#X connect 68 0 112 0;
#X connect 68 0 113 0;
#X connect 69 0 71 0;
#X connect 69 0 72 0;
#X connect 69 0 73 0;
#X connect 69 0 74 0;
#X connect 70 0 75 0;
#X connect 70 0 76 0;
#X connect 70 0 77 0;
#X connect 70 0 78 0;
#X connect 71 0 119 1;
#X connect 72 0 119 2;
#X connect 73 0 119 3;
#X connect 74 0 119 4;
#X connect 75 0 120 1;
#X connect 76 0 120 2;
#X connect 77 0 120 3;
#X connect 78 0 120 4;
#X connect 79 0 115 1;
#X connect 80 0 115 2;
#X connect 81 0 115 3;
#X connect 82 0 115 4;
#X connect 83 0 13 0;
#X connect 85 0 12 0;
#X connect 93 0 116 1;
#X connect 94 0 116 2;
#X connect 95 0 116 3;
#X connect 96 0 116 4;
#X connect 97 0 117 1;
#X connect 98 0 117 2;
#X connect 99 0 117 3;
#X connect 100 0 117 4;
#X connect 101 0 49 1;
#X connect 102 0 44 1;
#X connect 103 0 18 1;
#X connect 104 0 1 1;
#X connect 105 0 23 1;
#X connect 105 0 28 1;
#X connect 105 0 34 1;
#X connect 105 0 39 1;
#X connect 106 0 118 1;
#X connect 107 0 118 2;
#X connect 108 0 118 3;
#X connect 109 0 118 4;
#X connect 110 0 114 1;
#X connect 111 0 114 2;
#X connect 112 0 114 3;
#X connect 113 0 114 4;
#X connect 114 0 88 0;
#X connect 115 0 86 0;
#X connect 116 0 90 0;
#X connect 117 0 87 0;
#X connect 118 0 91 0;
#X connect 119 0 89 0;
#X connect 120 0 92 0;
#X connect 121 0 115 0;
#X connect 122 0 116 0;
#X connect 123 0 117 0;
#X connect 124 0 118 0;
#X connect 125 0 114 0;
#X connect 126 0 63 0;
#X connect 127 0 119 0;
#X connect 128 0 120 0;
#X restore 161 -27 pd piano1R;
#X connect 0 0 1 0;
#X connect 2 0 4 0;
#X connect 3 0 1 0;
#X connect 4 0 3 0;
#X connect 4 1 5 0;
#X connect 5 0 11 0;
#X connect 6 0 1 0;
#X connect 7 0 1 0;
#X connect 8 0 6 0;
#X connect 9 0 7 0;
#X connect 11 0 12 0;
#X restore 14 118 pd soundoutputR;
#X obj 636 153 bng 15 250 50 0 empty empty empty 17 7 0 10 -262144
-1 -1;
#X msg 636 200 0;
#X obj 636 175 delay 100;
#X connect 0 0 6 0;
#X connect 1 0 10 0;
#X connect 2 0 0 0;
#X connect 2 0 1 0;
#X connect 2 0 3 0;
#X connect 3 0 26 0;
#X connect 5 0 4 0;
#X connect 6 0 16 0;
#X connect 6 1 16 1;
#X connect 6 2 16 2;
#X connect 6 3 16 3;
#X connect 6 4 16 4;
#X connect 6 5 16 5;
#X connect 6 6 16 6;
#X connect 6 7 16 7;
#X connect 6 8 16 8;
#X connect 6 9 16 9;
#X connect 6 10 16 10;
#X connect 6 11 16 11;
#X connect 6 12 16 12;
#X connect 6 13 16 13;
#X connect 7 0 18 0;
#X connect 8 0 18 1;
#X connect 9 0 18 2;
#X connect 10 0 7 0;
#X connect 10 1 8 0;
#X connect 10 2 9 0;
#X connect 10 3 11 0;
#X connect 11 0 18 3;
#X connect 11 0 27 0;
#X connect 20 0 22 0;
#X connect 22 0 21 0;
#X connect 27 0 29 0;
#X connect 28 0 11 0;
#X connect 29 0 28 0;
