#N canvas 20 473 733 327 10;
#X obj 26 269 sendOSC;
#X msg 32 67 disconnect;
#X msg 17 39 connect localhost 4321;
#X obj 17 14 loadbang;
#X text 82 272 Sender;
#X obj 114 67 r g_TriggerLight;
#X msg 114 154 LEFT;
#X msg 157 154 RIGHT;
#X msg 114 215 send /\$1/triggerLightWithHSVColor \$2 0 100 255;
#X obj 114 95 unpack f f;
#X obj 114 124 sel 0 1;
#X obj 114 189 pack s f;
#N canvas 305 72 1119 689 samples 0;
#X obj 28 504 sendOSC;
#X msg 47 98 disconnect;
#X obj 240 85 key;
#X floatatom 240 294 5 0 0 0 - - -;
#X obj 240 199 spigot;
#X floatatom 240 132 5 0 0 0 - - -;
#X obj 240 246 spigot;
#X obj 240 155 t f f;
#X obj 381 514 oscTimeinterval;
#X obj 273 178 >= 48;
#X obj 273 225 <= 57;
#X obj 240 269 - 48;
#X obj 273 86 tgl 15 0 empty empty empty 17 7 0 10 -262144 -1 -1 0
1;
#X obj 240 108 spigot;
#X msg 28 69 connect localhost 4321;
#X obj 576 97 tgl 15 0 empty empty empty 17 7 0 10 -262144 -1 -1 0
1;
#X obj 576 155 count 9;
#X floatatom 575 265 5 0 0 0 - - -;
#X obj 576 124 metro 500;
#X obj 621 231 random 360;
#X floatatom 621 264 5 0 0 0 - - -;
#X floatatom 702 263 5 0 0 0 - - -;
#X obj 702 230 random 255;
#X obj 621 198 bng 15 250 50 0 empty empty empty 17 7 0 10 -262144
-1 -1;
#X obj 575 295 pack f f f;
#X msg 240 328 send /LEFT/triggerLightWithRGBColor \$1 255 255 255
;
#X obj 28 44 loadbang;
#X text 84 507 Sender;
#X msg 379 464 send /BOTH/setLightOn 0;
#X msg 382 580 send /BOTH/setLightOff 0;
#X obj 384 491 hsl 128 15 0 359 0 0 empty empty empty -2 -8 0 10 -262144
-1 -1 0 1;
#X floatatom 381 536 5 0 0 0 - - -;
#X msg 381 557 send /BOTH/setHSVColor 0 \$1 255 255;
#X text 556 492 2 you change color smoothly;
#X text 554 582 3 turn off(back to normal mode);
#X text 555 464 1 turn on light;
#X msg 380 435 send /BOTH/triggerLightWithHSVColor 0 0 100 255;
#X msg 575 326 send /RIGHT/triggerLightWithHSVColor \$1 \$2 \$3 255
;
#X text 529 21 trigger RIGHT light with random color every 500ms;
#X text 240 63 Trigger LEFT light with keybord;
#X connect 1 0 0 0;
#X connect 2 0 13 0;
#X connect 3 0 25 0;
#X connect 4 0 6 0;
#X connect 5 0 7 0;
#X connect 6 0 11 0;
#X connect 7 0 4 0;
#X connect 7 1 9 0;
#X connect 7 1 10 0;
#X connect 8 0 31 0;
#X connect 9 0 4 1;
#X connect 10 0 6 1;
#X connect 11 0 3 0;
#X connect 12 0 13 1;
#X connect 13 0 5 0;
#X connect 14 0 0 0;
#X connect 15 0 18 0;
#X connect 16 0 17 0;
#X connect 16 0 23 0;
#X connect 17 0 24 0;
#X connect 18 0 16 0;
#X connect 19 0 20 0;
#X connect 20 0 24 1;
#X connect 21 0 24 2;
#X connect 22 0 21 0;
#X connect 23 0 19 0;
#X connect 23 0 22 0;
#X connect 24 0 37 0;
#X connect 25 0 0 0;
#X connect 26 0 14 0;
#X connect 28 0 0 0;
#X connect 29 0 0 0;
#X connect 30 0 8 0;
#X connect 31 0 32 0;
#X connect 32 0 0 0;
#X connect 36 0 0 0;
#X connect 37 0 0 0;
#X restore 146 271 pd samples;
#X msg 411 131 LEFT;
#X msg 454 155 RIGHT;
#X obj 411 98 sel 0 1;
#X obj 411 43 r g_TriggerLightHSV;
#X msg 411 213 send /\$1/triggerLightWithHSVColor \$2 \$3 \$4 \$5;
#X obj 411 70 unpack f f f f f;
#X obj 411 186 pack s f f f f;
#X connect 1 0 0 0;
#X connect 2 0 0 0;
#X connect 3 0 2 0;
#X connect 5 0 9 0;
#X connect 6 0 11 0;
#X connect 7 0 11 0;
#X connect 8 0 0 0;
#X connect 9 0 10 0;
#X connect 9 1 11 1;
#X connect 10 0 6 0;
#X connect 10 1 7 0;
#X connect 11 0 8 0;
#X connect 13 0 19 0;
#X connect 14 0 19 0;
#X connect 15 0 13 0;
#X connect 15 1 14 0;
#X connect 16 0 18 0;
#X connect 17 0 0 0;
#X connect 18 0 15 0;
#X connect 18 1 19 1;
#X connect 18 2 19 2;
#X connect 18 3 19 3;
#X connect 18 4 19 4;
#X connect 19 0 17 0;
