#N canvas 207 512 450 300 10;
#X obj 132 13 spigot;
#N canvas 509 519 450 300 onebang 0;
#X obj 129 -101 loadbang;
#X msg 188 -70 1;
#X msg 220 -70 0;
#X obj 188 -170 inlet;
#X obj 220 -97 inlet;
#X obj 188 -41 outlet;
#X obj 220 -19 outlet;
#X obj 188 -131 delay 133;
#X obj 263 -201 r bpm;
#X obj 263 -157 / 5;
#X floatatom 263 -178 5 0 0 0 - - -;
#X floatatom 263 -132 5 0 0 0 - - -;
#X connect 0 0 1 0;
#X connect 1 0 5 0;
#X connect 2 0 6 0;
#X connect 3 0 7 0;
#X connect 4 0 2 0;
#X connect 7 0 1 0;
#X connect 8 0 10 0;
#X connect 9 0 11 0;
#X connect 10 0 9 0;
#X connect 11 0 7 1;
#X restore 199 15 pd onebang;
#X obj 132 -31 inlet;
#X obj 132 58 outlet;
#X connect 0 0 1 1;
#X connect 0 0 1 0;
#X connect 0 0 3 0;
#X connect 1 0 0 1;
#X connect 1 1 0 1;
#X connect 2 0 0 0;
