#N canvas 142 23 1115 743 10;
#X obj -241 106 spigot;
#X obj -208 73 tgl 15 0 empty empty empty 17 7 0 10 -262144 -1 -1 0
1;
#X obj -35 106 spigot;
#X obj -2 73 tgl 15 0 empty empty empty 17 7 0 10 -262144 -1 -1 0 1
;
#X obj 163 106 spigot;
#X obj 196 73 tgl 15 0 empty empty empty 17 7 0 10 -262144 -1 -1 1
1;
#X obj 364 106 spigot;
#X obj 397 73 tgl 15 0 empty empty empty 17 7 0 10 -262144 -1 -1 0
1;
#X floatatom -241 278 5 0 0 0 - - -;
#X floatatom -222 163 5 0 0 0 - - -;
#X obj -241 347 s NoteNUM;
#X floatatom -220 -2 5 0 0 0 - - -;
#X obj -208 45 r GestureL1;
#X obj -2 45 r GestureL2;
#X obj 196 40 r GestureL3;
#X obj 397 40 r GestureL4;
#X obj -130 164 inlet scale1;
#X obj 76 166 inlet scale2;
#X obj 274 166 inlet scale3;
#X obj 475 167 inlet scale4;
#X obj -239 -106 inlet;
#X obj -206 308 outlet;
#X obj -35 192 DetermineNoteNumber;
#X obj -241 192 DetermineNoteNumber;
#X obj 364 192 DetermineNoteNumber;
#X obj 163 192 DetermineNoteNumber;
#X connect 0 0 23 0;
#X connect 1 0 0 1;
#X connect 2 0 22 0;
#X connect 3 0 2 1;
#X connect 4 0 25 0;
#X connect 5 0 4 1;
#X connect 6 0 24 0;
#X connect 7 0 6 1;
#X connect 8 0 10 0;
#X connect 8 0 21 0;
#X connect 9 0 23 0;
#X connect 12 0 1 0;
#X connect 13 0 3 0;
#X connect 14 0 5 0;
#X connect 15 0 7 0;
#X connect 16 0 23 1;
#X connect 17 0 22 1;
#X connect 18 0 25 1;
#X connect 19 0 24 1;
#X connect 20 0 0 0;
#X connect 20 0 2 0;
#X connect 20 0 4 0;
#X connect 20 0 6 0;
#X connect 20 0 11 0;
#X connect 22 0 8 0;
#X connect 23 0 8 0;
#X connect 24 0 8 0;
#X connect 25 0 8 0;
